<?xml version="1.0" encoding="UTF-8" standalone="no"?>
<!-- Created with Inkscape (http://www.inkscape.org/) -->

<svg
   xmlns:dc="http://purl.org/dc/elements/1.1/"
   xmlns:cc="http://creativecommons.org/ns#"
   xmlns:rdf="http://www.w3.org/1999/02/22-rdf-syntax-ns#"
   xmlns:svg="http://www.w3.org/2000/svg"
   xmlns="http://www.w3.org/2000/svg"
   xmlns:sodipodi="http://sodipodi.sourceforge.net/DTD/sodipodi-0.dtd"
   xmlns:inkscape="http://www.inkscape.org/namespaces/inkscape"
   width="241.95982"
   height="150.08711"
   viewBox="0 0 64.018539 39.710548"
   version="1.1"
   id="svg4890"
   inkscape:version="0.92.1 r15371"
   sodipodi:docname="logo.svg">
  <defs
     id="defs4884" />
  <sodipodi:namedview
     id="base"
     pagecolor="#ffffff"
     bordercolor="#666666"
     borderopacity="1.0"
     inkscape:pageopacity="0.0"
     inkscape:pageshadow="2"
     inkscape:zoom="2.8"
     inkscape:cx="46.406463"
     inkscape:cy="47.78616"
     inkscape:document-units="mm"
     inkscape:current-layer="layer1"
     showgrid="false"
     borderlayer="true"
     inkscape:showpageshadow="false"
     fit-margin-top="0"
     fit-margin-left="0"
     fit-margin-right="0"
     fit-margin-bottom="0"
     inkscape:window-width="2560"
     inkscape:window-height="1362"
     inkscape:window-x="0"
     inkscape:window-y="50"
     inkscape:window-maximized="1"
     showguides="true"
     inkscape:guide-bbox="true"
     units="px">
    <sodipodi:guide
       position="0,9.2523622e-07"
       orientation="0,125.07925"
       id="guide4554"
       inkscape:locked="false" />
    <sodipodi:guide
       position="68.177456,30.143602"
       orientation="-150.08711,0"
       id="guide4556"
       inkscape:locked="false" />
    <sodipodi:guide
       position="33.093884,39.71055"
       orientation="0,-125.07925"
       id="guide4558"
       inkscape:locked="false" />
    <sodipodi:guide
       position="0,39.71055"
       orientation="150.08711,0"
       id="guide4560"
       inkscape:locked="false" />
  </sodipodi:namedview>
  <metadata
     id="metadata4887">
    <rdf:RDF>
      <cc:Work
         rdf:about="">
        <dc:format>image/svg+xml</dc:format>
        <dc:type
           rdf:resource="http://purl.org/dc/dcmitype/StillImage" />
        <dc:title></dc:title>
      </cc:Work>
    </rdf:RDF>
  </metadata>
  <g
     inkscape:label="Calque 1"
     inkscape:groupmode="layer"
     id="layer1"
     transform="translate(-10.723571,-69.236608)">
    <g
       id="g4727"
       transform="matrix(0.55590648,0,0,0.55590648,-130.04451,-42.920751)">
      <g
         id="g4579"
         transform="matrix(0.70827792,0,0,0.70827792,191.6222,3.9670628)" />
    </g>
    <path
       style="opacity:1;fill:#ff9d00;fill-opacity:1;fill-rule:nonzero;stroke:none;stroke-width:0.52916664;stroke-linecap:butt;stroke-linejoin:miter;stroke-miterlimit:4;stroke-dasharray:none;stroke-dashoffset:0;stroke-opacity:1"
       d="m 23.421209,84.71534 a 0.9921875,0.77366996 0 0 1 -0.992187,0.77367 0.9921875,0.77366996 0 0 1 -0.992188,-0.77367 0.9921875,0.77366996 0 0 1 0.992188,-0.77367 0.9921875,0.77366996 0 0 1 0.992187,0.77367 z"
       id="path4488" />
    <path
       style="opacity:1;fill:#ff9d00;fill-opacity:1;fill-rule:nonzero;stroke:none;stroke-width:0.52916664;stroke-linecap:butt;stroke-linejoin:miter;stroke-miterlimit:4;stroke-dasharray:none;stroke-dashoffset:0;stroke-opacity:1"
       d="m 32.398144,84.697624 a 0.9921875,0.77367002 0 0 1 -0.992188,0.77367 0.9921875,0.77367002 0 0 1 -0.992187,-0.77367 0.9921875,0.77367002 0 0 1 0.992187,-0.77367 0.9921875,0.77367002 0 0 1 0.992188,0.77367 z"
       id="path4488-3" />
    <g
       id="g4612"
       transform="matrix(0.1251014,0,0,0.1251014,59.485777,45.38627)">
      <g
         id="g4632"
         transform="translate(-64.144687,-63.075608)">
        <path
           inkscape:connector-curvature="0"
           id="path4616"
           d="m -192.05805,571.0208 c -0.0847,-0.13697 -0.47047,-1.12961 -0.85736,-2.20585 -2.36167,-6.56977 -7.61082,-14.98606 -13.43178,-21.53598 -3.62598,-4.08006 -11.38511,-11.77395 -11.8738,-11.77395 -0.62865,0 -0.60663,0.0942 0.47383,2.0262 1.85158,3.31094 3.76159,10.32645 4.34667,15.96546 0.33954,3.2724 0.34944,6.53537 0.0188,6.20448 -0.13812,-0.13824 -1.57146,-2.87073 -3.18521,-6.07219 -3.92424,-7.7852 -5.87439,-11.15491 -10.4123,-17.99166 -3.32363,-5.00735 -8.59947,-11.88572 -13.49554,-17.59479 -5.87795,-6.85401 -21.58557,-21.69584 -22.96145,-21.69584 -0.51251,0 -0.54643,0.099 -0.38523,1.12448 0.15057,0.95777 1.49519,5.13288 2.13027,6.61458 0.16427,0.38327 0.0592,0.46303 -0.61019,0.46303 -0.99869,0 -1.86247,-0.86935 -3.94334,-3.96875 -3.20267,-4.7703 -5.77062,-10.60211 -7.28057,-16.53417 -0.42905,-1.68558 -0.73307,-2.40351 -1.04309,-2.46321 -0.33737,-0.065 -0.48423,0.20709 -0.64144,1.18832 -0.30542,1.90626 -0.21546,8.13244 0.15156,10.48944 0.52056,3.3431 0.0192,3.03464 -2.07939,-1.27934 -3.06673,-6.30416 -4.65047,-12.97088 -5.11771,-21.54298 -0.0769,-1.41104 -0.54672,-1.66242 -1.10159,-0.58942 -0.6991,1.35192 -2.00241,6.58559 -2.32531,9.33773 -0.28393,2.42002 -0.35245,2.62562 -0.85106,2.55391 -0.64755,-0.0931 -1.2149,-1.92832 -1.98721,-6.42799 -0.74548,-4.34331 -0.90628,-7.98288 -0.52021,-11.77396 0.45899,-4.50719 0.45856,-5.42396 -0.003,-5.42396 -0.20577,0 -0.59264,0.39112 -0.8597,0.86916 -0.6643,1.18911 -2.76257,7.48765 -3.17002,9.51574 -0.18273,0.9095 -0.41945,1.65364 -0.52605,1.65364 -0.33454,0 -0.45851,-0.8107 -0.75114,-4.91207 -0.4516,-6.32954 0.38667,-14.12872 2.01448,-18.74242 0.55998,-1.58716 0.15407,-1.86071 -1.89096,-1.27433 -2.28748,0.65591 -12.04213,0.65404 -15.08033,-0.003 -3.21762,-0.69572 -4.98997,-1.27235 -4.72503,-1.5373 0.12937,-0.12936 2.3899,-0.71641 5.02341,-1.30456 5.34232,-1.19311 6.96516,-1.69863 9.965,-3.10409 1.44533,-0.67716 2.0363,-1.08996 1.97846,-1.38199 -0.0676,-0.34147 -0.36708,-0.3926 -1.66407,-0.28411 -5.6443,0.47212 -10.9468,-0.14472 -15.8443,-1.84317 -4.36461,-1.51364 -6.03268,-2.53238 -5.49643,-3.35684 0.099,-0.15218 1.52025,-0.35629 3.15837,-0.45357 5.35229,-0.31784 12.52372,-1.90114 14.51206,-3.20394 1.27807,-0.83743 0.41939,-1.01328 -3.20684,-0.65672 -3.29615,0.3241 -14.7734,0.21147 -18.47971,-0.18136 l -1.55027,-0.16431 0.15083,-0.92944 c 0.0889,-0.54786 0.64385,-1.53822 1.35168,-2.41224 4.78949,-5.91379 7.71053,-11.89999 14.60264,-29.92549 1.80832,-4.72943 3.76397,-9.82687 4.3459,-11.32764 1.2021,-3.10017 1.46657,-4.15029 1.10201,-4.3756 -0.13972,-0.0864 -1.03816,0.31592 -1.99654,0.89395 -0.95838,0.57802 -1.86809,1.05095 -2.02158,1.05095 -1.46603,0 2.41122,-7.1555 6.92254,-12.7756 2.9111,-3.6266 2.63523,-3.86328 -1.90549,-1.63478 -1.64134,0.80554 -3.04951,1.39936 -3.12927,1.3196 -0.44738,-0.44738 2.27551,-4.32051 5.77051,-8.20818 1.86787,-2.07772 5.90482,-5.88324 7.07774,-6.67199 0.62426,-0.41979 0.7759,-0.99037 0.33554,-1.26253 -0.33251,-0.2055 -3.20557,0.65161 -6.08984,1.81676 -1.23671,0.49959 -2.33804,0.85305 -2.4474,0.78546 -0.48018,-0.29677 -0.0966,-1.0319 1.30563,-2.50195 2.47642,-2.59627 8.07375,-6.66218 13.84138,-10.0544 2.44616,-1.43871 2.5903,-1.97469 0.51299,-1.90751 -1.37562,0.0445 -7.22346,1.14013 -8.25205,1.54608 -0.6472,0.25543 -0.60673,-0.50495 0.0866,-1.62674 0.97207,-1.57285 7.74021,-6.3279 10.61316,-7.45643 0.55443,-0.21779 1.00806,-0.56664 1.00806,-0.77523 0,-0.2086 -0.68943,-1.1728 -1.53208,-2.14268 -3.24263,-3.73227 -5.52802,-7.9083 -6.78156,-12.39174 -0.64336,-2.30109 -1.19466,-5.33417 -1.20612,-6.63574 -0.008,-0.87866 0.99045,-0.80474 1.21501,0.09 0.27939,1.11317 3.22008,5.40012 3.70428,5.40012 0.49323,0 0.4862,-0.0733 -0.41125,-4.28222 -0.30051,-1.40934 -0.72836,-4.12397 -0.95079,-6.03251 -0.44467,-3.81558 -0.6148,-12.8297 -0.28347,-15.01912 0.31489,-2.0807 0.84715,-1.81495 1.23979,0.61901 0.19781,1.22624 0.46728,2.06308 0.6921,2.14935 0.53098,0.20376 0.56884,0.11488 0.87612,-2.05663 0.93471,-6.60546 3.16256,-13.65279 6.25388,-19.78283 3.71577,-7.36833 7.68109,-12.01514 13.80567,-16.17838 1.63814,-1.11354 1.69541,-1.13038 2.77812,-0.81724 1.78597,0.51655 5.69625,2.50356 8.08913,4.1105 6.0838,4.08559 10.69608,8.82549 18.02973,18.52861 6.99289,9.25228 11.7881,14.44435 15.86891,17.18228 l 1.93125,1.29573 2.93491,-0.57171 c 7.42065,-1.44551 12.76531,-1.87738 23.30782,-1.88338 7.69841,-0.004 11.67132,0.28074 17.06563,1.22476 2.25557,0.39473 4.46923,0.71546 4.91925,0.71273 2.12739,-0.0129 8.95393,-6.23486 13.93638,-12.70212 1.55541,-2.01893 4.28928,-5.5687 6.07526,-7.88838 5.44142,-7.06746 11.15657,-12.77477 16.08645,-16.06438 2.76516,-1.84513 8.08001,-4.45657 9.07012,-4.45657 0.88451,0 4.71385,2.92558 7.60788,5.81234 3.54971,3.54079 6.01681,6.95204 8.33,11.51787 2.61755,5.16658 4.69915,11.7244 5.87892,18.52083 0.34219,1.97134 0.56045,2.64584 0.85615,2.64584 0.28609,0 0.49555,-0.55397 0.75033,-1.98438 0.49736,-2.79239 0.5342,-2.88157 0.95456,-2.31076 0.54415,0.73891 1.00484,5.97293 0.99519,11.30659 -0.009,5.02734 -0.31209,8.7557 -1.03212,12.7 -0.52769,2.8907 -0.54371,3.23063 -0.15863,3.36471 0.3873,0.13484 2.10093,-3.20084 3.155731,-6.14283 l 0.758899,-2.11667 0.07674,2.335 c 0.09476,2.88343 -0.527947,5.37678 -2.192163,8.7775 -1.649767,3.3712 -4.912327,7.54063 -5.900507,7.54063 -0.45974,0 -0.60004,-1.72063 -0.30424,-3.73102 0.44847,-3.04791 0.37784,-14.31085 -0.11596,-18.49398 -0.2319,-1.96453 -0.53997,-4.58444 -0.68458,-5.82202 -0.31216,-2.67146 -2.0573,-9.90016 -3.06573,-12.69882 -1.06821,-2.96458 -3.33055,-7.63337 -4.62772,-9.55022 -1.3548,-2.002 -3.78179,-4.41898 -4.65814,-4.63893 -0.85829,-0.21542 -2.48965,0.48766 -4.99987,2.15484 -3.57068,2.37147 -7.52995,6.91905 -10.43034,11.98016 -0.77517,1.35267 -1.62179,2.57306 -1.88136,2.71198 -0.95076,0.50883 -1.46796,0.29532 -1.79161,-0.7396 -0.54686,-1.74871 -2.25695,-4.69022 -2.78363,-4.7881 -0.46428,-0.0863 -0.48151,0.0257 -0.26459,1.71952 0.60804,4.74788 0.12936,13.77878 -0.79753,15.04638 -0.26642,0.36436 -0.40602,0.19874 -0.93691,-1.11154 -0.75104,-1.85364 -1.79858,-3.33484 -2.18819,-3.09405 -0.18884,0.11671 -0.22727,0.98095 -0.11492,2.58464 0.20919,2.98599 -0.22887,7.86907 -0.80618,8.98651 -0.23617,0.45712 -1.07214,1.76994 -1.85772,2.91739 -1.87175,2.73394 -1.81906,3.0532 0.58349,3.53521 1.01864,0.20436 4.02059,1.07697 6.671,1.93911 2.6504,0.86215 5.18815,1.56754 5.63943,1.56754 1.34185,0 4.34624,-3.24794 5.97655,-6.46103 1.08809,-2.14446 1.22983,-2.58581 0.89739,-2.79439 -0.28094,-0.17627 -0.87493,0.0162 -2.05963,0.66739 -3.03087,1.66598 -3.40882,1.14082 -1.41698,-1.96888 3.31635,-5.17755 4.99256,-9.81251 5.96884,-16.50475 0.22886,-1.56875 0.42447,-3.77141 0.4347,-4.89479 0.0102,-1.12338 0.11147,-2.2805 0.22499,-2.57137 0.29579,-0.75789 1.0268,3.47593 1.24898,7.23372 0.13569,2.29495 0.27006,3.03624 0.57131,3.15184 0.5462,0.2096 0.98393,-0.4798 1.83523,-2.89035 0.61011,-1.72758 0.82667,-2.0703 1.30858,-2.07087 0.77562,-7.9e-4 0.88596,0.45161 1.12209,4.60172 0.23991,4.21662 -0.0203,9.90813 -0.66336,14.50978 -0.25897,1.85321 -0.384,3.45634 -0.27783,3.56251 0.37737,0.37738 1.12121,-0.3947 3.25592,-3.37953 2.58868,-3.61958 2.6445,-3.68475 3.15609,-3.68475 0.33006,0 0.36915,0.22661 0.21684,1.25677 -0.34562,2.33758 -1.98515,7.28122 -3.78827,11.42271 -0.59698,1.37116 -1.08542,2.65108 -1.08542,2.84427 0,0.94434 1.28387,0.0482 5.06751,-3.53707 1.01077,-0.95778 1.99646,-1.66793 2.3151,-1.66793 0.69301,0 0.69161,0.0407 -0.078,2.26876 -1.01332,2.93361 -2.47755,6.15685 -3.74607,8.24627 -0.64751,1.06653 -1.17729,2.10562 -1.17729,2.30908 0,0.20597 1.61247,1.2196 3.63802,2.28693 10.98045,5.786 19.29832,11.28293 18.403451,12.16208 -0.117337,0.11527 -1.558337,-0.1991 -3.20222,-0.69861 -3.493001,-1.06138 -6.011141,-1.45165 -5.828361,-0.90329 0.13531,0.4059 -0.0327,0.3092 3.850563,2.21678 4.739003,2.32798 9.596885,5.77 9.596885,6.79982 0,0.6566 -0.389178,0.63383 -2.75807,-0.16138 -2.35894,-0.79187 -5.834205,-1.49025 -6.377783,-1.28166 -0.715839,0.2747 -0.400148,0.89297 0.827465,1.62059 3.537863,2.0969 8.32943,6.03557 10.469803,8.60618 2.269588,2.72579 1.698464,2.93364 -2.375185,0.86437 -3.211404,-1.63128 -4.132194,-1.93334 -4.429109,-1.45292 -0.129334,0.20927 0.219323,0.71689 0.963321,1.40255 3.20616,2.95474 8.177474,9.25789 8.177474,10.36825 0,0.78045 -1.335029,0.34777 -3.31902,-1.07568 -1.115542,-0.80036 -2.134807,-1.4552 -2.265035,-1.4552 -0.518228,0 -0.128563,1.20997 2.641431,8.20208 1.585362,4.00182 4.100825,10.37167 5.589913,14.15521 5.505431,13.98843 8.740669,20.91423 12.239836,26.20235 2.103967,3.17961 5.204513,6.58908 7.191375,7.90789 0.795364,0.52792 1.513522,1.06895 1.595913,1.20227 0.220134,0.35617 -0.639074,1.06463 -2.958941,2.43983 -4.115805,2.43977 -8.830812,4.12348 -15.112362,5.39655 l -3.260431,0.66079 -1.40562,-0.64352 c -1.938999,-0.8877 -4.640363,-2.76812 -9.049048,-6.29904 -4.204394,-3.36729 -6.283021,-4.71785 -7.384645,-4.79807 -0.91776,-0.0668 -0.93955,-0.002 -1.68957,4.98874 -0.94572,6.29367 -2.2796,10.91821 -4.51778,15.66316 -0.72312,1.53302 -1.31477,3.00431 -1.31477,3.26953 0,0.26522 0.34829,0.73972 0.77397,1.05444 0.78391,0.57957 2.26199,2.58817 3.02825,4.11518 0.61051,1.21663 1.67017,5.01619 1.89028,6.77785 0.1046,0.83719 0.30864,1.59538 0.45342,1.68486 0.59659,0.36871 0.75975,-0.71878 0.64073,-4.27073 -0.13306,-3.97103 -0.68227,-6.69266 -1.87724,-9.30284 -0.35574,-0.77703 -0.54397,-1.41278 -0.41829,-1.41278 0.12569,0 1.0175,0.8632 1.98182,1.91823 1.34232,1.46859 2.13509,2.69346 3.382085,5.22552 1.913392,3.88519 1.736836,3.59882 2.028155,3.28965 0.594186,-0.63058 -0.931568,-6.95912 -2.515401,-10.4334 l -0.904621,-1.98438 1.189233,1.32292 c 0.654079,0.7276 1.706734,2.33495 2.339231,3.57187 0.6325,1.23693 1.258994,2.18943 1.392211,2.11667 0.464371,-0.25363 0.173049,-2.53784 -0.615399,-4.82529 -1.074555,-3.11749 -2.792008,-6.04321 -4.669343,-7.95433 l -1.558211,-1.58624 1.690503,0.13903 c 2.18721,0.17989 5.558189,1.31473 7.288548,2.4537 2.02392,1.3322 4.075679,3.56681 5.398923,5.88008 l 1.173859,2.05212 -0.02627,5.02932 c -0.02143,4.10501 -0.131805,5.51342 -0.600507,7.66338 -0.977812,4.48529 -1.907212,5.12951 -2.40267,1.66542 -0.629293,-4.39984 -2.003253,-8.25008 -2.883551,-8.08056 -0.382691,0.0737 -0.441531,0.6098 -0.473459,4.31387 -0.03947,4.57913 -0.482658,7.69401 -1.540486,10.82712 -1.077846,3.1924 -2.56123,6.49946 -2.915335,6.49946 -0.506698,0 -0.871067,-1.21421 -1.055346,-3.51684 -0.253529,-3.16788 -1.572998,-7.06649 -2.391619,-7.06649 -0.4674,0 -0.53791,0.33067 -0.93101,4.36563 -0.49343,5.06475 -2.01166,10.19909 -4.30304,14.55208 -0.82585,1.56888 -1.25115,2.11667 -1.64337,2.11667 -0.48051,0 -0.51742,-0.1338 -0.40139,-1.45521 0.2323,-2.64576 0.15144,-5.63767 -0.15515,-5.74084 -0.16058,-0.054 -0.62947,0.82859 -1.04198,1.9614 -1.36371,3.74495 -2.75556,6.77683 -4.81681,10.49251 -1.88206,3.39266 -2.88263,4.58236 -3.4102,4.0548 -0.0913,-0.0913 0.0968,-1.2715 0.41809,-2.62267 0.32124,-1.35116 0.65116,-3.02221 0.73314,-3.71343 0.13179,-1.11117 0.0911,-1.25532 -0.35082,-1.24425 -0.28259,0.007 -1.01743,0.6657 -1.6905,1.51518 -4.92736,6.2187 -14.24298,16.18128 -23.55909,25.19522 -16.33317,15.8034 -30.4412,29.73816 -31.80906,31.41839 -4.08477,5.01759 -6.76349,10.90541 -9.4745,20.82493 -1.18297,4.32848 -1.80466,5.81631 -2.24596,5.37502 -0.27393,-0.27395 -0.62696,-3.65435 -0.63606,-6.09074 -0.008,-2.07653 -0.0593,-2.3151 -0.50019,-2.3151 -0.6121,0 -3.22372,4.9635 -4.66368,8.86354 -1.01526,2.74979 -1.29414,3.25953 -1.55357,2.83974 z m 7.62969,-32.59349 c 2.71386,-6.27869 6.41772,-12.33691 12.86719,-21.04625 6.55164,-8.8473 9.24377,-13.61046 11.48711,-20.32401 1.73789,-5.20088 2.98324,-12.02837 3.36304,-18.43745 0.0546,-0.92151 0.15272,-0.5707 0.43406,1.55207 0.25252,1.90539 0.32142,4.2882 0.22568,7.8052 -0.15511,5.69807 -0.6873,9.29717 -2.30203,15.56806 -0.55105,2.14001 -0.93713,3.95571 -0.85796,4.0349 0.45266,0.45265 0.92336,-0.17984 2.30098,-3.09185 3.48223,-7.36075 5.93402,-17.30958 5.9649,-24.20431 0.007,-1.52306 0.0568,-1.71585 0.32839,-1.2672 0.22158,0.366 0.31617,2.03852 0.30675,5.42396 -0.0127,4.56412 -0.16793,6.09859 -1.0641,10.51719 -0.14975,0.73835 -0.10067,0.85989 0.34726,0.85989 0.40823,0 0.8695,-0.7335 2.12142,-3.37343 3.95749,-8.34514 5.53154,-15.68362 5.85956,-27.31823 l 0.1753,-6.21771 0.6217,1.98437 c 2.65702,8.48084 2.832,17.86591 0.54448,29.20427 -0.43757,2.16888 -0.72731,4.01168 -0.64388,4.09511 0.86256,0.86256 5.2015,-8.26676 7.08675,-14.91083 2.97439,-10.48248 3.0373,-22.81853 0.17357,-34.03777 -1.23551,-4.84038 -3.95726,-12.16882 -6.08454,-16.38294 -0.43168,-0.85515 -0.78488,-1.64305 -0.78488,-1.75087 0,-0.32508 2.59307,2.30539 4.22111,4.28199 5.40745,6.56518 9.04272,15.06929 10.4999,24.56276 0.22703,1.47913 0.49026,4.71203 0.58495,7.18422 0.14775,3.8574 0.23329,4.50658 0.60316,4.57729 0.52256,0.0999 0.66377,-0.69394 1.02476,-5.76118 0.27749,-3.89501 0.003,-9.45791 -0.67847,-13.74359 -0.81828,-5.14704 -2.95287,-12.29125 -4.47205,-14.96741 -0.33044,-0.58209 -0.85429,-1.63814 -1.16413,-2.34679 -0.71926,-1.64508 -0.28884,-1.32867 1.85625,1.36458 2.03495,2.55497 3.52232,5.14222 4.89962,8.52283 0.6969,1.71054 1.29657,2.81284 1.56051,2.86845 0.37762,0.0796 0.40819,-0.15669 0.25676,-1.98437 -0.74115,-8.94563 -3.22381,-16.48185 -7.66307,-23.26161 -0.94043,-1.43624 -1.65885,-2.66237 -1.59649,-2.72472 0.22381,-0.22381 3.05364,1.8489 4.89208,3.58319 5.01294,4.72895 8.13178,10.81716 9.93939,19.40239 0.35235,1.67349 0.71652,3.90583 0.80928,4.96075 0.18421,2.09506 0.70054,2.96805 1.11254,1.88103 0.50488,-1.33206 0.93916,-6.6587 0.91374,-11.2074 -0.0482,-8.62326 -1.78052,-15.46135 -5.40367,-21.33004 -1.80087,-2.917 -2.59616,-3.94779 -4.84362,-6.27791 l -1.87442,-1.94337 1.85208,0.92241 c 4.94699,2.46381 9.54964,7.16284 12.23794,12.49423 1.53289,3.04 3.50477,10.07842 3.50477,12.50991 0,0.73346 0.53676,1.28002 0.90017,0.91661 0.087,-0.087 0.15816,-2.39446 0.15816,-5.12771 0,-5.75946 -0.45036,-8.68563 -2.11876,-13.76648 -1.90855,-5.8122 -4.91102,-11.07558 -9.02468,-15.82041 -1.08316,-1.24935 -1.7068,-2.14789 -1.41561,-2.03957 1.57998,0.58772 5.00918,2.94716 6.90341,4.74986 4.12687,3.92744 6.22937,7.83504 8.03577,14.93486 0.29094,1.14348 0.902,1.50637 1.11382,0.66146 0.18789,-0.74947 -0.27565,-5.51978 -0.84695,-8.71597 -1.67622,-9.37779 -6.11314,-16.92506 -12.33951,-20.98968 -1.10938,-0.72421 -1.89525,-1.31674 -1.74639,-1.31674 0.71956,0 4.12129,1.23183 5.97618,2.16409 1.14284,0.57439 2.1394,0.98283 2.21458,0.90766 0.42976,-0.42976 -0.50158,-1.82756 -2.65108,-3.97889 -2.34783,-2.34981 -5.40229,-4.64911 -6.17602,-4.64911 -0.51376,0 -0.79003,0.85053 -1.01853,3.13571 -0.14756,1.47571 -0.40553,2.31845 -1.06899,3.49224 -2.16173,3.82449 -4.1922,6.08454 -7.23473,8.05274 -2.74697,1.77701 -2.54022,2.50168 0.41717,1.46224 0.82283,-0.2892 1.54775,-0.47411 1.61095,-0.41092 0.19554,0.19555 -1.84051,1.95862 -3.71711,3.21875 -2.8462,1.91121 -6.16258,3.09314 -12.56612,4.47845 -0.69637,0.15065 -0.79104,0.78073 -0.15403,1.02517 0.2427,0.0931 1.73098,0.24313 3.30729,0.33332 1.5763,0.0902 2.86601,0.25019 2.86601,0.35556 0,0.22247 -1.92919,1.06345 -3.83646,1.67239 -2.30233,0.73508 -5.96074,1.26098 -9.87928,1.42015 -3.00127,0.1219 -3.82521,0.23578 -3.94391,0.54509 -0.34887,0.90915 2.88043,2.26639 6.20216,2.60672 l 1.75967,0.18028 -0.77349,0.62959 c -0.42541,0.34627 -2.34531,1.39153 -4.26644,2.32279 -4.08329,1.97936 -5.5268,3.1743 -6.52702,5.40309 -0.83514,1.86094 -0.91466,3.12951 -0.59213,9.44651 0.23644,4.63077 0.0158,9.33367 -0.37744,8.04471 -0.11098,-0.3638 -0.4079,-2.03068 -0.65981,-3.70417 -0.59551,-3.9561 -1.9328,-9.38023 -3.29418,-13.36145 -1.35726,-3.96917 -4.9701,-11.33458 -7.25862,-14.79797 -0.95477,-1.44492 -1.68745,-2.67562 -1.62819,-2.73488 0.0593,-0.0593 0.73532,0.38831 1.50235,0.99461 1.66808,1.31854 3.29731,2.17274 5.24802,2.75151 2.15687,0.63995 2.24109,0.19055 0.30042,-1.60289 -0.90636,-0.8376 -2.18714,-2.24021 -2.84617,-3.11692 -1.15228,-1.53287 -2.62098,-4.11534 -2.34048,-4.11534 0.0745,0 0.86641,0.58904 1.75985,1.30898 2.63951,2.12694 6.09955,3.64645 10.00499,4.39377 4.03396,0.77192 4.31246,0.1936 0.7843,-1.62862 -2.27782,-1.17645 -5.31846,-3.57106 -4.97725,-3.91976 0.0868,-0.0887 0.83465,0.13812 1.66195,0.504 3.17452,1.40392 5.51221,1.8345 10.01807,1.84524 4.21899,0.0101 5.1344,-0.21563 3.34686,-0.82515 -0.49343,-0.16825 -1.90918,-0.63121 -3.1461,-1.02881 -2.15599,-0.69302 -4.91625,-1.91597 -4.72266,-2.09241 0.0508,-0.0463 1.22354,0.21695 2.60599,0.58508 1.98151,0.52767 3.35451,0.69496 6.48661,0.79036 5.42281,0.16517 5.82389,0.0389 7.67033,-2.41429 1.89713,-2.52057 1.90637,-2.90974 0.0644,-2.71203 -0.76398,0.082 -3.59171,0.2193 -6.28385,0.3051 l -4.89479,0.15601 2.19883,-0.92555 c 4.65938,-1.96127 7.56406,-3.91251 10.34957,-6.95241 3.18221,-3.47281 4.76572,-7.02162 4.86027,-10.89233 0.0491,-2.00874 2.6e-4,-2.24734 -0.54975,-2.69494 -2.2078,-1.79628 -9.00688,-0.88932 -12.94755,1.72714 -1.10215,0.73179 -1.56659,1.2512 -1.96473,2.19729 -1.6725,3.97428 -3.02237,6.32577 -4.45197,7.75536 -2.80122,2.80122 -5.49906,3.65801 -11.54168,3.66546 -2.46816,0.003 -4.15566,0.13322 -4.9928,0.38516 -1.68961,0.5085 -3.96973,2.05428 -4.70538,3.18996 -0.32806,0.50646 -0.69949,0.92231 -0.8254,0.92411 -0.69445,0.01 0.76526,-5.5216 2.0759,-7.8666 1.20254,-2.15157 0.64882,-2.60443 -1.05323,-0.86137 -0.56839,0.58208 -1.13482,1.05833 -1.25875,1.05833 -0.38125,0 1.58661,-3.49288 2.77832,-4.9314 0.61944,-0.74774 1.51322,-1.68106 1.98616,-2.07404 1.01988,-0.84745 1.1678,-1.58694 0.26459,-1.32276 -0.90688,0.26526 -3.14207,1.44761 -4.05987,2.14756 -1.35515,1.03349 -1.36683,0.91677 -0.17581,-1.75686 1.63503,-3.67038 5.33651,-7.80739 8.82421,-9.8625 2.34103,-1.37944 5.43353,-2.3141 8.38939,-2.53557 2.83046,-0.21208 3.58496,-0.007 1.63279,0.44346 -2.17694,0.50249 -4.22614,1.6556 -6.13789,3.45385 -2.37299,2.2321 -2.39915,3.17119 -0.0723,2.59571 0.58208,-0.14396 2.66567,-0.26384 4.6302,-0.2664 2.78418,-0.004 4.08703,0.12204 5.90787,0.56986 1.2848,0.31598 2.71355,0.5731 3.175,0.57137 1.22382,-0.005 3.38163,-0.63052 5.35173,-1.55245 2.04714,-0.95797 4.87999,-3.51759 4.87999,-4.40931 0,-0.75194 -2.60661,-3.19722 -4.30113,-4.03493 -2.4351,-1.20383 -6.10886,-1.94605 -9.87142,-1.99434 l -3.45692,-0.0444 2.39859,-1.02014 c 1.31922,-0.56107 2.66648,-1.12407 2.9939,-1.2511 0.77796,-0.30182 0.75164,-0.60818 -0.10021,-1.16633 -1.42309,-0.93244 -5.32293,-1.706 -12.12788,-2.40564 -1.5019,-0.15442 -1.5469,-0.17957 -0.92605,-0.51754 0.35892,-0.19538 1.21222,-0.49171 1.89624,-0.65851 1.59247,-0.38833 2.06056,-0.89196 1.23812,-1.33211 -1.15905,-0.6203 -5.86846,0.14941 -9.0705,1.48248 -0.44426,0.18496 -0.4305,0.11108 0.11725,-0.62979 0.47334,-0.64023 0.54721,-0.91267 0.31138,-1.14849 -0.43414,-0.43414 -3.86534,1.36435 -5.88766,3.08607 -2.67012,2.27322 -5.50277,6.47265 -7.4172,10.99603 -0.45936,1.08537 -0.89392,2.03293 -0.96569,2.10569 -0.0718,0.0728 -0.0881,-1.23692 -0.0364,-2.91041 0.0896,-2.89769 0.0689,-3.04271 -0.43507,-3.04271 -1.08424,0 -2.24896,6.94355 -2.24896,13.40741 0,1.72097 -0.0957,3.12905 -0.21276,3.12905 -0.11702,0 -0.94435,-1.39899 -1.8385,-3.10886 -1.94815,-3.72538 -2.31601,-4.26158 -2.67736,-3.9026 -0.32167,0.31956 0.98846,4.19797 4.46883,13.22916 1.34591,3.4925 3.13598,8.37407 3.97793,10.84792 1.59025,4.67254 3.79455,12.65151 3.63084,13.14265 -0.0517,0.15507 -0.61466,-0.41687 -1.25106,-1.27098 -2.00851,-2.69564 -3.8886,-4.72431 -6.18566,-6.67447 -2.05512,-1.74477 -3.08726,-2.28731 -3.08726,-1.62279 0,0.14691 0.94007,1.4471 2.08904,2.88932 2.70896,3.40037 5.07192,6.80095 7.45465,10.72812 2.03096,3.34738 5.16708,9.59287 4.93401,9.82594 -0.0762,0.0762 -0.88559,-0.85192 -1.79861,-2.06252 -0.91301,-1.21061 -2.54145,-3.21313 -3.61874,-4.45006 -2.14244,-2.4599 -6.34167,-6.35 -6.85463,-6.35 -0.68861,0 -0.59952,0.54948 0.24492,1.51064 3.09118,3.51843 6.72891,8.95033 8.99962,13.43832 2.40665,4.75665 3.56323,7.84342 4.54166,12.1211 0.71673,3.13352 0.42844,3.06215 -0.86787,-0.21485 -1.65734,-4.18966 -3.4539,-7.5472 -5.49012,-10.2603 -2.45104,-3.26583 -6.05711,-6.50159 -6.61921,-5.93949 -0.0869,0.0869 0.57591,1.36614 1.47296,2.8427 1.76216,2.90051 4.87943,9.23756 4.65464,9.46234 -0.0759,0.0759 -0.94353,-0.007 -1.92814,-0.18338 -2.78253,-0.49942 -10.21374,-0.67135 -13.20812,-0.30559 -3.59063,0.43859 -7.11153,1.28545 -7.82759,1.88273 -0.43539,0.36316 -0.49021,0.50429 -0.20138,0.51843 0.21828,0.0107 3.55203,0.0532 7.40833,0.0945 7.04118,0.0754 10.03554,0.38875 13.05942,1.36652 1.04263,0.33713 0.99311,0.34554 -1.02088,0.17333 -3.75495,-0.32107 -10.67071,-0.1597 -13.62604,0.31794 -5.30761,0.85783 -10.3813,2.40645 -10.54439,3.21841 -0.10063,0.501 0.36336,0.48894 5.51731,-0.14336 4.53169,-0.55596 16.46074,-0.0556 17.90426,0.75101 0.17021,0.0951 -1.67525,0.18598 -4.10104,0.20192 -5.06596,0.0333 -8.44208,0.38692 -12.71398,1.33167 -4.68746,1.03665 -10.96578,3.39833 -11.55087,4.34501 -0.46423,0.75115 0.46327,0.79703 5.59677,0.27685 12.68412,-1.28527 18.60574,-1.28312 22.4388,0.008 4.86678,1.6395 6.07691,4.39861 6.07591,13.85309 -5.3e-4,5.92615 -0.43458,8.73494 -1.9585,12.67674 -0.96692,2.50107 -0.78804,2.95649 0.75911,1.93264 3.73157,-2.46944 8.64017,-8.39924 11.21735,-13.55105 2.82332,-5.64383 4.07765,-10.69288 4.84758,-19.51302 0.0857,-0.98227 0.24729,-1.78594 0.359,-1.78594 0.20205,0 0.83922,3.35763 1.35565,7.14375 0.29731,2.17965 0.37724,11.97345 0.10652,13.05207 -0.0933,0.3719 -0.0884,0.8078 0.011,0.96866 0.73206,1.18449 3.17492,-4.54901 4.8465,-11.37489 0.70013,-2.85901 1.45997,-7.29896 2.06023,-12.03855 0.14865,-1.17377 0.19503,-1.25017 0.41134,-0.67768 0.13409,0.35488 0.47824,2.61707 0.76479,5.02709 0.79533,6.6891 0.88919,7.24473 1.24343,7.36024 0.18101,0.059 0.43799,-0.17907 0.57108,-0.52911 0.53476,-1.40653 1.1171,-7.55115 1.27103,-13.41134 0.0896,-3.40976 0.25295,-5.95601 0.36307,-5.65833 0.11011,0.29768 0.45795,2.01592 0.77296,3.81831 0.72102,4.12544 0.99458,11.72443 0.5565,15.45801 -0.35394,3.01644 -0.41214,3.12534 -4.68177,8.76001 -6.6181,8.73397 -16.20114,18.32141 -24.29168,24.3028 -5.96182,4.40763 -6.33158,4.51986 -15.95726,4.84338 -6.52741,0.21938 -5.74058,-0.1955 -7.62125,4.01851 -1.65262,3.703 -2.95899,7.66232 -3.60993,10.94081 -0.61507,3.09794 -0.72792,8.46227 -0.24019,11.41814 0.77313,4.68558 2.74502,10.84792 3.47123,10.84792 0.32238,0 0.36895,-0.63498 0.29112,-3.96875 -0.22599,-9.67905 1.9414,-18.46755 6.16619,-25.00313 0.61145,-0.94589 1.31454,-1.88635 1.56242,-2.08991 0.41077,-0.33734 0.42839,-0.31145 0.19885,0.29228 -0.13851,0.36432 -0.52584,2.19775 -0.86072,4.07428 -0.56637,3.17363 -0.60905,4.13248 -0.61128,13.73064 -0.002,10.77712 0.0772,11.91803 1.33041,19.05 0.86322,4.91239 1.59112,8.06725 1.94237,8.41849 0.5035,0.50353 0.77805,-0.12798 1.35466,-3.11589 0.76014,-3.93896 2.66621,-10.48377 4.12565,-14.16614 1.50793,-3.80468 5.80724,-12.5653 8.31012,-16.93333 2.76861,-4.8318 4.68009,-8.45635 5.98147,-11.34206 0.63213,-1.40171 1.14755,-2.42951 1.14537,-2.28399 -0.002,0.14553 -0.12226,1.09803 -0.26686,2.11667 -0.42658,3.00526 -1.20422,5.21061 -4.89803,13.89063 -4.47556,10.51703 -6.33832,15.82613 -8.21563,23.41562 -1.16952,4.72808 -2.42726,12.38134 -2.25018,13.69219 0.0147,0.10914 0.19025,0.19844 0.39,0.19844 0.20953,0 0.89327,-1.22637 1.61605,-2.89854 z m -24.46527,-21.64157 c 0.20662,-11.51289 0.56623,-14.66345 2.42353,-21.23281 0.97301,-3.44157 2.45683,-6.57701 4.20642,-8.88854 0.98117,-1.29632 1.25922,-1.84558 1.04365,-2.06168 -0.31746,-0.31822 -5.98133,-0.57782 -7.0044,-0.32105 -0.76372,0.19168 -2.2953,3.62756 -3.1833,7.14124 -1.92185,7.6045 -1.34741,18.25407 1.33238,24.70139 0.30953,0.74469 1.17157,1.22721 1.18172,0.66145 z m -6.59704,-13.47194 c -0.0445,-5.39572 0.24327,-7.64109 1.48398,-11.57777 0.78624,-2.49466 1.64471,-4.28767 2.8916,-6.03944 0.9404,-1.32118 1.11604,-1.99687 0.56426,-2.17071 -0.1819,-0.0573 -1.50123,-0.42664 -2.93183,-0.82074 -3.18252,-0.8767 -3.15759,-0.89253 -4.04232,2.56711 -0.96872,3.78807 -1.25154,6.93608 -1.08935,12.12505 0.12317,3.9405 0.24905,4.996 0.83711,7.01917 1.11715,3.84347 1.53822,4.66953 2.09591,4.11184 0.12748,-0.12748 0.21326,-2.47401 0.19064,-5.21451 z m -6.2845,-6.92222 c 0.31951,-4.50132 1.63088,-9.82994 3.36063,-13.65557 l 0.5912,-1.30755 -1.4239,-1.26372 c -1.7676,-1.56875 -2.23971,-1.61419 -2.60681,-0.2509 -0.90409,3.35755 -1.64445,13.88004 -1.21719,17.29968 0.15045,1.20416 0.28561,1.51441 0.65972,1.51441 0.40292,0 0.49433,-0.33565 0.63635,-2.33635 z m 116.01851,-33.53508 c 0.58958,-2.64049 0.4871,-9.02055 -0.19711,-12.27219 -0.6291,-2.98973 -1.74843,-5.65189 -2.42906,-5.77715 -0.43947,-0.0809 -2.61853,2.95474 -2.61853,3.64784 0,0.19683 0.58637,1.55775 1.30304,3.02426 1.69937,3.47738 2.64703,7.49795 2.66047,11.28739 0.003,0.81249 0.0871,1.55911 0.18714,1.65916 0.41312,0.41311 0.7637,-0.0898 1.09405,-1.56931 z m -147.74459,-2.42701 c 0.0804,-0.25466 0.32307,-3.43958 0.53927,-7.0776 0.2162,-3.63802 0.50999,-7.50755 0.65286,-8.59896 1.30308,-9.95461 2.976,-17.40924 5.42533,-24.1756 0.78684,-2.17368 2.06695,-4.94276 1.60846,-3.47935 -0.3664,1.16947 -1.1782,6.56792 -1.47303,9.79558 -0.52778,5.77797 0.10992,13.81931 1.59884,20.16132 0.62685,2.67001 1.02832,3.42566 1.68595,3.1733 0.36548,-0.14024 0.43513,-0.61072 0.43513,-2.93899 0,-5.47971 0.98704,-14.184 2.25947,-19.92533 0.7819,-3.528 2.4779,-8.80468 2.82994,-8.80468 0.12842,0 0.17565,0.0936 0.10495,0.20797 -0.0707,0.11439 -0.25581,2.24487 -0.41137,4.73441 -0.61917,9.90894 1.00588,20.19006 4.18747,26.49277 1.54413,3.0589 2.03382,2.52501 1.42181,-1.55014 -0.34946,-2.32701 -0.45568,-4.80961 -0.45791,-10.70272 -0.003,-8.24349 0.15072,-9.63222 1.6268,-14.68437 1.01526,-3.47492 0.50539,-5.83352 -1.80225,-8.33701 -1.28675,-1.39596 -2.33472,-1.99888 -4.6075,-2.65077 -2.50737,-0.71919 -5.50208,-2.04111 -5.1046,-2.25328 0.19254,-0.10277 0.94538,-0.27093 1.67298,-0.37367 2.94815,-0.41633 3.83646,-0.69595 3.83646,-1.20765 0,-0.38755 -0.26486,-0.52385 -1.25677,-0.64676 -6.7151,-0.83206 -9.81543,-1.8373 -13.6175,-4.4153 -3.05947,-2.07448 -6.11717,-5.89226 -7.7682,-9.6992 -0.38672,-0.89171 -0.91307,-1.68793 -1.16966,-1.76937 -0.5409,-0.17168 -0.79412,-1.19729 -0.79412,-3.21649 0,-1.03382 -0.11116,-1.4731 -0.4009,-1.58429 -1.24678,-0.47843 -6.53068,4.21601 -9.28788,8.25176 -1.60096,2.34334 -3.01122,4.87405 -3.01122,5.40365 0,0.60006 1.0348,0.22189 1.66937,-0.61007 0.93323,-1.22353 4.18047,-3.65033 6.40043,-4.78332 1.01864,-0.51988 1.95767,-0.94581 2.08672,-0.94653 0.12906,-7.9e-4 -0.32092,0.59266 -0.99995,1.31859 -3.16223,3.38068 -5.93785,8.98671 -7.18738,14.51664 -0.72325,3.20083 -1.33959,8.87343 -1.07754,9.9175 0.283,1.12757 0.87577,0.83237 1.37499,-0.68475 1.50325,-4.56833 3.56421,-8.13072 6.44646,-11.14277 1.86712,-1.9512 4.78065,-4.33336 4.78065,-3.90875 0,0.1425 -0.61648,1.25079 -1.36996,2.46286 -5.34377,8.59614 -7.93703,18.32886 -7.53122,28.26523 0.21101,5.16672 0.4019,6.61867 0.89504,6.80791 0.51159,0.19631 0.78044,-0.28645 0.97932,-1.75846 0.91761,-6.79174 4.09265,-15.1021 8.09546,-21.18904 1.56574,-2.38096 4.48422,-6.15315 5.01384,-6.48047 0.13449,-0.0831 -0.10439,0.695 -0.53084,1.72915 -1.16643,2.82864 -2.61204,7.45542 -3.30319,10.57209 -1.79564,8.09731 -1.69225,19.66565 0.26367,29.50111 0.77791,3.91181 1.18054,5.20728 1.57733,5.07511 0.30395,-0.10124 0.30515,-0.12739 0.52111,-11.29282 0.0892,-4.61199 0.30873,-8.88766 0.53658,-10.45104 0.7506,-5.15005 1.90136,-9.96637 3.22253,-13.48736 0.82654,-2.20276 1.286,-2.86159 0.74726,-1.07151 -2.36418,7.85558 -3.5283,21.55603 -2.77705,32.68283 0.18176,2.69213 0.38449,4.98409 0.4505,5.09323 0.22259,0.36802 0.84576,0.20199 0.99306,-0.26459 z m -29.63656,-12.17188 c 1.21496,-0.98284 2.96654,-2.2053 3.89239,-2.71656 0.92586,-0.51127 1.72258,-1.13315 1.7705,-1.38196 0.10007,-0.51961 -2.54047,-4.43324 -2.99112,-4.43324 -0.86056,0 -2.86862,3.22729 -4.74829,7.63129 -1.41299,3.3106 -1.08086,3.45463 2.07652,0.90047 z m -7.51563,-6.82734 c 5.12458,-1.12284 9.15418,-2.54036 9.39708,-3.30567 0.0853,-0.26893 -0.0189,-0.82566 -0.23172,-1.23717 -0.8972,-1.73499 -1.27385,-3.94298 -1.41145,-8.27408 -0.15455,-4.8644 0.17817,-7.6101 1.41896,-11.70965 0.38569,-1.27431 0.61699,-2.40119 0.514,-2.50418 -0.66259,-0.66259 -2.49489,2.48609 -4.70947,8.0929 -1.38345,3.50258 -1.41659,3.55498 -3.47012,5.4868 -2.35956,2.21971 -4.8863,3.57697 -7.6068,4.08609 -2.37972,0.44534 -2.41671,0.46085 -2.31826,0.97208 0.0593,0.30819 0.47473,0.52904 1.27632,0.6786 1.20653,0.22511 9.04271,0.0537 10.97792,-0.24018 l 1.05834,-0.1607 -0.79375,0.86054 c -1.15343,1.25047 -6.3762,5.07838 -8.70915,6.38316 -1.81981,1.01778 -2.26711,1.46404 -1.86777,1.86338 0.16239,0.16239 3.63579,-0.36964 6.47587,-0.99192 z m -16.57944,-18.75526 c 0.89677,-0.50118 2.73074,-1.33594 4.07549,-1.85501 3.3929,-1.30964 13.37869,-3.85553 13.73298,-3.50123 0.2379,0.23789 -4.74711,2.88169 -7.56553,4.01238 -1.63893,0.6575 -2.79162,1.26933 -2.79162,1.48176 0,0.57974 2.08744,0.8219 5.69552,0.66073 3.71821,-0.1661 6.20364,-0.54732 7.03102,-1.07845 0.50878,-0.3266 0.5688,-0.67679 0.71073,-4.14689 0.35978,-8.7962 2.57178,-15.94248 6.35124,-20.51893 0.68897,-0.83426 0.91765,-1.30007 0.73026,-1.48747 -0.39971,-0.3997 -1.66892,0.28241 -4.05779,2.18076 -1.12265,0.89213 -2.04119,1.58846 -2.04119,1.54741 0,-0.54514 1.28229,-4.45712 1.91036,-5.82811 0.62035,-1.35412 0.74763,-1.87021 0.51789,-2.09994 -1.01382,-1.01383 -10.93325,4.28013 -15.55389,8.30104 -1.80867,1.57392 -2.12366,2.01432 -1.7255,2.41248 0.20354,0.20354 0.86066,0.004 2.30009,-0.69816 2.33292,-1.13813 5.40232,-2.32938 5.72489,-2.22185 0.12212,0.0407 -0.88165,0.80101 -2.23059,1.68957 -3.64643,2.40192 -6.98412,5.45795 -9.3743,8.58322 -2.07455,2.71256 -1.46716,3.3331 1.38188,1.41179 1.99892,-1.34802 6.12512,-3.4167 7.39188,-3.70594 0.64367,-0.14698 0.41854,0.10913 -1.19062,1.35448 -5.41007,4.18692 -9.149,7.80991 -11.92857,11.55873 -2.2839,3.08028 -2.04414,3.59606 0.90537,1.94763 z m 236.561958,-0.38168 c 0.229791,-0.37183 -0.338296,-0.67397 -3.024187,-1.60837 -3.517006,-1.22355 -7.50955,-3.13769 -10.242962,-4.91079 -2.597463,-1.6849 -7.312539,-5.41227 -7.106767,-5.61804 0.230749,-0.23075 5.186905,1.01921 8.314859,2.09704 3.314777,1.1422 5.768052,2.30559 8.265012,3.91947 1.594405,1.0305 2.357358,1.30239 2.357358,0.84006 0,-0.66431 -2.474595,-3.87633 -4.714179,-6.11903 -3.799165,-3.80443 -8.271769,-6.98773 -14.705353,-10.46631 -1.266309,-0.68468 -2.246424,-1.30083 -2.178032,-1.36923 0.197893,-0.19789 2.994528,0.43778 5.666989,1.2881 3.209557,1.02121 5.497512,2.06093 7.444152,3.38287 1.670285,1.13427 2.136423,1.29141 2.136423,0.72023 0,-1.20042 -5.191183,-6.82585 -8.647988,-9.37141 -2.328479,-1.71467 -5.795052,-3.7743 -8.555122,-5.08295 l -1.714598,-0.81295 1.484707,0.1345 c 2.332254,0.21128 6.489258,1.39105 8.927507,2.53365 3.694536,1.73132 4.332102,1.22096 1.42789,-1.14299 -2.189456,-1.78216 -4.786611,-3.38858 -7.684574,-4.75315 -5.65927,-2.66479 -14.871153,-5.44959 -14.871153,-4.49563 0,0.113 0.66294,1.1548 1.47321,2.3151 3.04081,4.35443 5.19509,8.95267 6.61858,14.12713 0.497224,1.80744 0.904042,3.34062 0.904042,3.40708 0,0.0664 -0.880822,-0.71587 -1.957382,-1.7385 -1.07656,-1.02263 -2.21964,-1.94256 -2.54018,-2.04429 -1.10697,-0.35134 -1.16173,0.2642 -0.17351,1.95033 2.64152,4.50708 4.822948,11.55323 5.165769,16.68581 l 0.166761,2.49667 3.704167,0.0599 c 4.118774,0.0666 6.420175,0.42232 12.832291,1.98328 6.081643,1.48052 10.875195,2.16046 11.22627,1.5924 z M -228.79733,401.98731 c 4.01131,-0.83618 8.0711,-3.58797 10.50312,-7.11915 0.80826,-1.17355 1.04532,-1.76341 1.02471,-2.54963 -0.0669,-2.55176 -1.98475,-5.05631 -4.48082,-5.85158 -0.94402,-0.30078 -2.82996,-0.44873 -6.85833,-0.53804 -4.96805,-0.11014 -5.82233,-0.19712 -8.06979,-0.8216 -3.77051,-1.04767 -5.19376,-1.77945 -10.1702,-5.22906 -0.14603,-0.10122 -0.19046,-0.2591 -0.0987,-0.35082 0.0917,-0.0917 0.98125,0.19017 1.97672,0.62645 2.17825,0.95466 3.15863,1.22085 3.35085,0.90983 0.0789,-0.12765 -0.35833,-1.07062 -0.9716,-2.09549 -0.61328,-1.02487 -1.50755,-3.00205 -1.98726,-4.39375 l -0.87221,-2.53036 -1.89763,-0.95375 c -3.29941,-1.65827 -7.00037,-2.3517 -9.23671,-1.73063 -1.46631,0.40722 -1.6373,0.9325 -1.26539,3.88719 0.38897,3.09023 0.85367,4.69089 2.05531,7.07953 1.85108,3.67958 4.03649,5.81436 7.98374,7.79875 1.67145,0.84029 6.10135,2.12356 7.33059,2.12356 0.34514,0 0.62753,0.10959 0.62753,0.24353 0,0.60268 -5.2626,0.66965 -9.72343,0.12373 -1.1495,-0.14068 -1.38907,-0.0995 -1.38907,0.23865 0,0.61413 2.99083,2.48851 4.98742,3.12567 2.21013,0.7053 6.5477,0.96026 8.79953,0.51723 1.89901,-0.3736 6.31782,-1.70604 7.17817,-2.16448 0.51553,-0.27471 0.55422,-0.26525 0.27928,0.0683 -0.50334,0.61067 -4.81896,2.78598 -6.46892,3.26069 -0.82302,0.2368 -2.83139,0.71328 -4.46306,1.05884 -4.23631,0.89721 -4.55422,1.44962 -1.13361,1.96975 5.62194,0.85485 10.42344,-0.22789 15.20986,-3.42982 0.92004,-0.61547 1.94068,-1.36089 2.2681,-1.65649 0.32743,-0.29559 0.59532,-0.42412 0.59532,-0.28561 0,1.01282 -3.60974,4.58675 -6.83068,6.76294 -2.27492,1.53703 -2.67651,1.90825 -2.41075,2.22847 0.34474,0.41539 0.77768,0.38178 4.15795,-0.32287 z m -64.46871,-9.98295 c 2.48657,-1.09405 6.98362,-1.99176 10.07907,-2.01201 l 1.24876,-0.008 0.89191,-1.91822 c 0.49056,-1.05503 1.44666,-2.53104 2.12468,-3.28003 0.67802,-0.74898 1.23277,-1.48038 1.23277,-1.62533 0,-0.55308 -0.9271,-0.56759 -3.44748,-0.054 -4.54505,0.92622 -9.43737,2.86459 -10.14771,4.02059 -0.42278,0.68803 -0.13585,0.7553 1.43666,0.33682 2.33821,-0.62225 2.37249,-0.44062 0.11999,0.63565 -2.29586,1.09698 -5.42396,3.31574 -5.42396,3.8472 0,0.285 0.23781,0.68313 0.40805,0.68313 0.0304,0 0.69516,-0.28155 1.47726,-0.62565 z m 80.12066,-8.43633 c 0.60063,-1.49999 1.34542,-15.6725 1.05656,-20.10492 -0.23485,-3.60345 -0.3869,-4.23359 -0.99343,-4.11679 -0.30092,0.058 -0.538,0.76757 -0.86621,2.59268 -0.69155,3.84555 -0.72862,3.86359 -1.71905,0.83642 -1.56047,-4.76948 -4.78756,-10.5774 -6.3992,-11.51689 -1.71821,-1.00162 -3.55687,-1.9006 -4.99218,-2.44085 -3.80668,-1.43283 -12.93268,-3.35416 -14.43429,-3.0389 l -0.8738,0.18344 0.66146,0.3813 c 0.3638,0.2097 1.91161,0.88073 3.43958,1.49116 l 2.77813,1.10988 -1.45521,0.0157 c -4.26154,0.0459 -12.17083,2.25365 -12.17083,3.39733 0,0.32209 1.5872,1.74615 2.64583,2.37388 2.91579,1.72896 11.49755,4.32029 20.85491,6.2973 l 2.20179,0.46519 0.95428,1.47898 c 2.65688,4.11772 5.83013,11.91069 7.60514,18.6769 0.67021,2.5548 1.20908,3.16052 1.70652,1.91823 z m 56.10652,-1.7946 c 2.81077,-1.43998 3.90421,-4.40333 2.61072,-7.07533 -1.12848,-2.33114 -4.07962,-3.57147 -4.78969,-2.01304 -0.28362,0.62248 -0.2414,0.75633 0.4173,1.32292 0.77797,0.66918 1.36098,0.80006 1.62938,0.36578 0.35505,-0.57448 0.66146,-0.21256 0.66146,0.7813 0,1.47134 -0.42467,2.23753 -1.60917,2.90326 -2.26983,1.27571 -4.703,0.535 -5.79916,-1.76539 -0.7396,-1.55209 -1.20049,-1.74089 -1.61704,-0.6624 -0.66783,1.72909 0.58973,4.67975 2.49684,5.85841 1.83585,1.13461 4.12782,1.2433 5.99936,0.28449 z m 67.312369,0.57681 c 0.477499,-0.77261 -3.859164,-3.7802 -7.890848,-5.47251 -2.636531,-1.10669 -1.808445,-1.22593 1.500624,-0.21609 1.274315,0.38889 2.394757,0.62925 2.489872,0.53414 0.358981,-0.35898 -0.914384,-1.32399 -3.216883,-2.43787 -2.509915,-1.21423 -5.591254,-2.1951 -9.282774,-2.95497 -2.96948,-0.61123 -3.23536,-0.33922 -1.46905,1.503 0.79203,0.82608 1.76087,2.27341 2.40669,3.59532 0.59454,1.21694 1.20057,2.28653 1.34673,2.37686 0.14616,0.0903 1.36333,0.2687 2.70482,0.39637 3.438554,0.32726 6.018082,0.91839 8.499427,1.94777 2.349373,0.97463 2.704134,1.06334 2.911392,0.72798 z m -139.332039,-0.67681 c 0.9593,-0.50117 2.07268,-1.70809 2.41743,-2.62054 0.15478,-0.40965 0.28141,-1.44726 0.28141,-2.30579 0,-1.2725 -0.0946,-1.61159 -0.51177,-1.83486 -0.73323,-0.39241 -1.35921,-0.3388 -1.91479,0.16399 -0.68939,0.62389 -0.60884,1.58469 0.17597,2.09891 l 0.65981,0.43233 -0.7019,0.55212 c -0.46461,0.36546 -1.20903,0.5888 -2.20196,0.66062 -2.61529,0.18918 -4.45326,-1.22749 -4.9106,-3.78499 -0.25883,-1.44739 -0.36024,-1.55903 -0.93977,-1.03456 -0.39245,0.35515 -0.5029,0.82006 -0.5029,2.11668 0,2.01331 0.2989,2.87336 1.40529,4.04349 1.44741,1.5308 2.23957,1.88377 4.23024,1.88486 1.03646,5.3e-4 2.10194,-0.15723 2.51354,-0.37226 z m -55.64299,-2.031 c 1.21152,-0.20849 3.19112,-0.2635 5.73079,-0.15925 3.34246,0.1372 3.90151,0.10299 4.0358,-0.24697 0.45591,-1.18807 2.13002,-3.23389 3.18695,-3.89455 0.79557,-0.4973 1.20288,-0.93668 1.20288,-1.29758 0,-0.53226 -0.0862,-0.5415 -3.50573,-0.37595 -3.79701,0.18384 -6.36213,0.67051 -7.02432,1.33271 -0.62683,0.62682 -0.25703,0.7779 1.86106,0.76032 l 1.92211,-0.0159 -1.50443,0.22869 c -3.44367,0.52347 -8.06284,2.22978 -8.95882,3.30937 -0.41636,0.50168 -0.0421,0.98155 0.63639,0.81594 0.31154,-0.076 1.39934,-0.28159 2.41732,-0.45678 z m 172.23506,-1.28391 c 0.47526,-0.76899 -6.83334,-5.57226 -8.47871,-5.57226 -0.47097,0 -0.47612,1.18886 -0.0137,3.175 l 0.33877,1.45521 2.362,0.18141 c 1.29909,0.0998 2.89777,0.3559 3.55262,0.56916 1.4425,0.46976 2.03572,0.5205 2.23906,0.19148 z m -3.03281,-6.76122 c 0,-0.85092 -4.71938,-3.57354 -6.19436,-3.57354 -0.77254,0 -0.87794,0.52071 -0.42506,2.09981 0.337,1.17507 0.61244,1.32458 2.51837,1.36703 0.87313,0.0194 1.94469,0.12624 2.38125,0.23733 1.27582,0.32464 1.7198,0.29092 1.7198,-0.13063 z m 18.785412,-0.41117 c 0,-1.45292 -7.004892,-4.47712 -10.384892,-4.48343 -1.18356,-0.002 -1.23625,0.25876 -0.43044,2.13191 l 0.56175,1.30582 h 2.06678 c 2.00032,0 4.976472,0.48146 6.334718,1.02478 0.883285,0.35333 1.852084,0.36427 1.852084,0.0209 z m -144.462492,-2.63494 c 2.77463,-0.82188 7.33551,-1.0036 10.25316,-0.40851 3.15765,0.64404 3.38374,0.34104 1.51846,-2.03498 -1.63686,-2.08506 -3.74781,-3.69159 -6.87683,-5.23358 -3.89326,-1.91862 -8.55798,-2.62524 -12.03854,-1.82362 -1.96936,0.45356 -4.49792,1.81953 -4.49792,2.42984 0,0.47188 0.11891,0.50916 1.12448,0.35258 0.61846,-0.0963 2.37463,-0.22031 3.9026,-0.27558 1.52797,-0.0553 2.30188,-0.0494 1.7198,0.013 -5.42938,0.58229 -8.33438,1.77237 -8.33438,3.4143 0,1.15448 2.96674,3.15234 5.89083,3.96701 1.82962,0.50974 4.81561,0.34678 7.33834,-0.40048 z m 124.35416,-2.12656 c 0,-0.78453 -4.64048,-3.16337 -6.17089,-3.16337 -1.09025,0 -1.17533,0.22428 -0.61505,1.62134 0.1968,0.49071 0.42591,1.08683 0.50915,1.3247 0.12829,0.36664 0.61765,0.43249 3.21406,0.43249 1.6845,0 3.06273,-0.0968 3.06273,-0.21516 z m 16.933332,-0.60497 c 0,-0.39815 -1.710442,-1.6854 -3.330232,-2.50627 -1.27066,-0.64394 -5.00963,-1.63963 -6.15709,-1.63963 -0.44011,0 -0.86893,0.11122 -0.95294,0.24714 -0.17498,0.28312 0.6217,2.44675 0.99325,2.69747 0.13569,0.0916 1.39405,0.25378 2.79634,0.36047 1.4023,0.1067 3.26401,0.40466 4.13713,0.66214 1.98844,0.58638 2.513542,0.62371 2.513542,0.17868 z m -20.518302,-4.65388 c 0.3824,-0.61874 -3.54452,-2.403 -4.4901,-2.04015 -0.50842,0.1951 -0.49935,0.95364 0.0203,1.69551 0.3624,0.51739 0.64662,0.58804 2.36564,0.58804 1.07456,0 2.02145,-0.10953 2.10418,-0.2434 z m 15.59974,-1.30564 c 0.43723,-0.70745 -3.45301,-2.73749 -6.16273,-3.21588 -2.08282,-0.36772 -2.3771,-0.16658 -1.81654,1.24159 l 0.40196,1.00979 2.21304,0.19162 c 1.21717,0.1054 2.74882,0.36152 3.40367,0.56915 1.45416,0.4611 1.78058,0.49502 1.9606,0.20373 z m -168.11893,-40.67045 c 0,-0.0829 -0.54944,-1.66049 -1.22097,-3.50573 -0.67153,-1.84525 -1.55308,-4.66468 -1.95899,-6.26541 -0.72874,-2.87379 -1.69264,-8.57705 -1.48473,-8.78496 0.0589,-0.0589 0.64707,0.70296 1.30698,1.69308 0.65991,0.99012 1.86237,2.51021 2.67214,3.37799 1.96411,2.10479 2.1914,1.88735 1.78285,-1.70558 -0.37668,-3.31259 -0.39308,-10.98074 -0.0303,-14.15969 0.28072,-2.45971 1.28961,-7.1243 1.49621,-6.9177 0.0643,0.0643 0.29062,0.86126 0.50283,1.77092 0.21221,0.90966 0.69344,2.55887 1.06941,3.66493 1.04809,3.08336 1.78484,3.49026 2.0731,1.14495 0.43914,-3.57278 0.74073,-5.16337 1.38024,-7.27942 0.80582,-2.66635 1.13226,-2.60444 1.13841,0.21588 0.006,2.88565 0.72434,8.13641 1.59208,11.64195 1.56629,6.32764 4.32072,11.99869 7.81926,16.09896 0.93787,1.09917 1.70521,2.05383 1.70521,2.12147 0,0.23032 -1.45131,-0.29261 -3.04447,-1.09696 -2.03908,-1.02949 -4.59354,-2.95188 -5.91046,-4.44798 -1.81664,-2.06381 -2.30578,-1.42658 -0.99571,1.29715 1.53783,3.19729 5.5937,7.12179 8.91975,8.63086 3.06737,1.39169 7.88301,0.0487 10.76965,-3.00352 2.02667,-2.1429 2.52488,-3.42413 2.36825,-6.0903 -0.26724,-4.54888 -3.31188,-10.75759 -9.67797,-19.73557 -2.86265,-4.03714 -6.36991,-8.11586 -10.39885,-12.0932 -5.02184,-4.95753 -7.79749,-7.22138 -8.85393,-7.22138 -0.98701,0 -3.75676,3.12783 -5.5521,6.26989 -5.7157,10.00316 -7.29708,25.43812 -3.64724,35.5988 0.82702,2.30232 3.29365,6.71396 4.47502,8.00372 0.73336,0.80064 1.70431,1.24321 1.70431,0.77685 z"
           style="fill:#333333;fill-opacity:1;stroke-width:0.26458332" />
        <path
           inkscape:connector-curvature="0"
           id="path4614"
           d="m -192.10445,570.56231 c -0.0682,-0.21828 -0.18695,-0.59412 -0.26389,-0.83524 -0.077,-0.24109 -0.20289,-1.04476 -0.27987,-1.78594 -0.54871,-5.28333 -5.60833,-32.12642 -8.05523,-42.73584 -0.41711,-1.80856 -0.68317,-3.40998 -0.59124,-3.55873 0.0919,-0.14874 0.13775,-2.41948 0.10183,-5.0461 -0.10114,-7.39542 0.75204,-12.84499 2.87141,-18.3407 0.83978,-2.1776 3.00699,-6.02251 4.14593,-7.35537 0.65551,-0.76713 0.66097,-0.76834 0.50986,-0.11396 -2.01262,8.71623 -2.31001,20.57752 -0.79936,31.88229 0.86584,6.47939 2.3638,13.36146 2.90828,13.36146 0.54482,0 0.66461,-0.33644 1.32852,-3.73131 1.88125,-9.61972 4.84652,-16.88589 12.89187,-31.59056 1.75161,-3.20146 3.94168,-7.36865 4.86681,-9.26042 0.92514,-1.89177 1.62685,-3.14193 1.55936,-2.77813 -0.0675,0.36381 -0.20031,1.25549 -0.29515,1.98153 -0.26332,2.01573 -1.68257,6.07068 -4.16827,11.9091 -6.37359,14.97036 -8.55121,21.72145 -10.22396,31.6965 -1.0757,6.41475 -1.13075,6.9868 -0.68861,7.15648 0.48144,0.18473 0.6879,-0.11856 1.59308,-2.34048 2.1526,-5.28386 6.43635,-12.49172 11.3661,-19.12466 8.23101,-11.07475 11.7965,-17.41642 13.88332,-24.69318 1.37431,-4.79222 2.61638,-12.27468 2.69596,-16.24096 l 0.0266,-1.32453 0.29404,1.05833 c 0.1804,0.64929 0.29188,3.61484 0.28844,7.67292 -0.005,6.10899 -0.0608,6.89771 -0.72759,10.31875 -0.39711,2.03729 -1.13211,5.29647 -1.63334,7.24261 -0.86285,3.35027 -0.92781,4.00218 -0.39874,4.00218 0.36264,0 2.26968,-3.72397 3.55817,-6.94819 2.46464,-6.16735 4.00415,-13.03619 4.30947,-19.22759 0.12184,-2.47082 0.2244,-3.12919 0.41215,-2.64583 0.38575,0.99312 0.0403,11.6256 -0.46173,14.21009 -0.40904,2.10586 -0.37995,2.70527 0.13127,2.70527 0.34822,0 1.48063,-2.03046 2.76929,-4.96545 3.45329,-7.86502 4.81953,-14.74526 5.13484,-25.85851 l 0.17265,-6.08542 0.62413,1.98438 c 1.32199,4.20317 1.90296,7.82385 2.05906,12.83229 0.16913,5.42658 -0.20371,9.31465 -1.52074,15.85861 -0.4375,2.1738 -0.73628,4.10656 -0.66396,4.29502 0.29159,0.75987 0.94795,-0.103 2.61051,-3.43187 3.01828,-6.04335 4.76677,-11.1376 6.05722,-17.6478 0.55026,-2.77604 0.60145,-3.73836 0.58401,-10.98021 -0.0179,-7.45321 -0.0617,-8.15543 -0.71666,-11.50938 -1.3103,-6.70941 -3.7808,-14.25771 -6.83314,-20.87779 -0.56416,-1.22357 -0.9801,-2.2703 -0.92433,-2.32608 0.2677,-0.26769 4.42697,4.64041 6.32281,7.46117 5.44484,8.10119 8.15906,17.0583 8.61792,28.43968 0.15053,3.73363 0.23804,4.37449 0.60698,4.44503 0.55035,0.10521 0.67684,-0.57189 1.02547,-5.48916 0.72109,-10.17061 -1.42083,-21.65226 -5.5908,-29.96937 -0.56383,-1.12455 -1.02514,-2.1214 -1.02514,-2.21521 0,-0.6966 3.34849,3.63466 5.01205,6.48307 0.56495,0.96733 1.47288,2.8869 2.01763,4.2657 1.17949,2.98539 1.37348,3.28588 1.86044,2.88174 0.38303,-0.31788 0.35701,-0.76267 -0.32378,-5.53419 -0.99517,-6.97492 -3.76775,-14.40873 -7.47513,-20.04219 -0.88584,-1.34607 -1.50108,-2.4474 -1.3672,-2.4474 0.49219,0 4.4857,3.21106 5.91931,4.75952 2.1733,2.34742 3.68805,4.58513 5.30062,7.83049 2.18722,4.40188 3.47808,9.07167 4.10909,14.86495 0.28769,2.64126 0.39368,2.97213 0.95205,2.97213 0.44252,0 0.55601,-0.36724 0.89939,-2.91042 0.73623,-5.45256 0.5719,-13.75879 -0.36117,-18.25625 -1.42282,-6.85807 -4.57074,-13.00425 -9.13496,-17.83561 -2.1632,-2.28981 -1.99523,-2.35836 1.16594,-0.47583 2.41708,1.43941 6.00865,4.71545 7.8923,7.19894 2.6514,3.49573 5.09169,9.46418 5.78042,14.13776 0.15153,1.02824 0.3342,2.26274 0.40593,2.74333 0.14259,0.95526 0.80055,1.40346 1.20143,0.8184 0.47069,-0.68694 0.0787,-9.85046 -0.55763,-13.03715 -1.5884,-7.95403 -5.17121,-15.32262 -10.36408,-21.31531 -2.09656,-2.41948 -1.98374,-2.47466 1.22256,-0.59796 5.51185,3.22617 9.64717,9.10267 11.65158,16.55748 0.70505,2.62222 0.73175,2.6729 1.29417,2.45708 0.33142,-0.12718 0.37409,-0.53391 0.24629,-2.34779 -0.24838,-3.52533 -1.31431,-9.40308 -2.2224,-12.25468 -2.15119,-6.75525 -6.32532,-12.59615 -11.21988,-15.70007 -0.71971,-0.45641 -1.17874,-0.82984 -1.02006,-0.82984 0.73844,0 4.09567,1.20431 5.71528,2.05019 3.37021,1.76019 2.83917,0.0618 -1.18189,-3.77987 -2.22061,-2.12156 -5.01561,-4.09115 -5.80566,-4.09115 -0.34602,0 -0.51893,0.27117 -0.63263,0.99218 -0.77317,4.90253 -1.05461,5.6563 -3.1556,8.45123 -1.53843,2.04656 -3.76632,4.10218 -5.90618,5.44951 -2.43898,1.53565 -2.0117,2.34543 0.72761,1.37895 1.66159,-0.58624 1.78799,-0.4972 0.7795,0.54914 -2.48462,2.57786 -6.80629,4.6432 -12.15659,5.80967 -3.48244,0.75925 -4.2783,1.1247 -3.62677,1.66542 0.31513,0.26154 3.89147,0.77155 6.00802,0.85678 0.53683,0.0216 0.40609,0.14753 -0.69389,0.66825 -2.86365,1.35562 -9.16617,2.48928 -13.83898,2.48928 -2.04538,0 -2.64049,0.0836 -2.75699,0.38714 -0.3662,0.95432 2.97948,2.43863 6.08926,2.70151 l 1.97961,0.16733 -0.74732,0.60939 c -0.67635,0.55152 -1.65048,1.06534 -6.13109,3.23397 -2.02534,0.98027 -3.6513,2.52101 -4.55989,4.32092 -0.93396,1.85016 -0.99033,2.69296 -0.68726,10.27558 0.11343,2.83765 0.10441,5.75468 -0.02,6.48229 l -0.22626,1.32292 -0.33563,-2.24896 c -1.74997,-11.72582 -5.98976,-23.0971 -11.54206,-30.95625 -1.35595,-1.91931 -1.34227,-1.98428 0.17638,-0.83769 1.63823,1.23688 4.89258,2.81612 6.3728,3.09254 1.46102,0.27284 1.29237,-0.3269 -0.54012,-1.92075 -1.75674,-1.52797 -3.31472,-3.48246 -4.57477,-5.73907 l -0.87583,-1.5685 1.37187,1.08439 c 2.73445,2.16147 5.89325,3.65032 9.71207,4.57763 2.58121,0.62679 4.10105,0.67653 4.10105,0.13421 0,-0.21199 -0.9709,-0.88859 -2.17115,-1.51303 -1.26661,-0.65896 -2.8374,-1.7663 -3.77032,-2.6579 l -1.59916,-1.52834 1.52966,0.66046 c 3.16181,1.36519 7.98829,2.2473 12.29618,2.2473 1.73705,0 2.23091,-0.0856 2.35473,-0.40829 0.0862,-0.22456 0.10494,-0.46002 0.0417,-0.52325 -0.0632,-0.0632 -1.17927,-0.42163 -2.48008,-0.79644 -2.22235,-0.64034 -6.0499,-2.21606 -5.85541,-2.41055 0.0486,-0.0486 1.27049,0.22494 2.71535,0.60785 2.24611,0.59524 3.1833,0.69767 6.46348,0.70643 4.92084,0.0131 5.36281,-0.14761 7.13165,-2.59405 1.3441,-1.85898 1.61411,-2.6248 1.00429,-2.84848 -0.1819,-0.0667 -1.34276,0.0331 -2.57969,0.22185 -1.23693,0.18874 -3.8563,0.34747 -5.82083,0.35275 l -3.57188,0.01 2.11667,-0.87597 c 4.29874,-1.77903 6.96763,-3.58203 9.92143,-6.70251 3.45235,-3.64716 5.01473,-7.05757 5.10905,-11.15215 0.0462,-2.00683 -0.003,-2.24777 -0.55281,-2.69494 -1.88979,-1.53755 -6.86949,-1.24161 -11.04342,0.6563 -2.60985,1.18672 -3.63198,2.16615 -4.35271,4.17088 -1.50589,4.18866 -4.04006,7.61787 -6.59147,8.9195 -2.2694,1.15776 -3.47122,1.37997 -8.62965,1.59561 -2.76597,0.11562 -5.46431,0.36028 -5.99916,0.54394 -1.28288,0.44053 -3.36308,2.03149 -4.11492,3.14715 l -0.60155,0.89264 v -1.17417 c 0,-1.71755 0.64277,-3.90722 1.85426,-6.31674 0.90817,-1.80627 1.00485,-2.14865 0.64564,-2.28649 -0.27855,-0.10689 -0.82138,0.22939 -1.59347,0.98714 -2.65019,2.60097 -0.25094,-1.96088 2.5993,-4.94221 1.12779,-1.17965 2.05052,-2.22145 2.05052,-2.3151 0,-0.58646 -3.17924,0.77027 -4.96094,2.11707 -1.15922,0.87627 -1.13564,0.36696 0.097,-2.09551 3.74569,-7.48259 10.75625,-12.12777 18.22536,-12.07608 l 1.85208,0.0128 -1.45521,0.38626 c -2.3799,0.6317 -4.18859,1.66274 -6.1306,3.49473 -1.30587,1.2319 -1.80954,1.88676 -1.75339,2.27972 0.0895,0.62644 0.0943,0.62667 3.51837,0.16817 2.91823,-0.39077 5.48869,-0.1981 9.08722,0.68111 2.44818,0.59815 2.87893,0.63478 4.07917,0.34685 3.36272,-0.80671 6.42779,-2.45127 8.00691,-4.29613 1.32236,-1.54488 1.2376,-2.24698 -0.44944,-3.72276 -2.79574,-2.44566 -6.71222,-3.74004 -12.25719,-4.05096 l -3.175,-0.17803 1.5875,-0.73808 c 0.87312,-0.40595 2.03398,-0.87996 2.57968,-1.05336 1.04883,-0.33328 1.27687,-0.89106 0.57431,-1.40479 -0.3523,-0.25761 -0.01,-0.57734 2.18281,-2.03744 4.14448,-2.75995 7.86905,-5.86572 11.99796,-10.00461 9.53116,-9.55422 15.04405,-19.57692 18.08442,-32.87833 0.55484,-2.4274 3.62789,-6.89018 4.28918,-6.22889 0.46031,0.46031 -1.77519,7.72839 -3.96517,12.89159 -1.05332,2.48335 -1.13596,2.91845 -0.55437,2.91845 0.41694,0 1.4103,-0.81912 4.56562,-3.76475 1.80292,-1.68311 2.50329,-2.07735 2.80969,-1.58158 0.35133,0.56846 -3.11265,8.73206 -4.69039,11.05391 -1.14453,1.68434 -1.0124,1.93705 1.74882,3.34451 6.91484,3.52466 15.617181,8.7168 18.387329,10.97056 0.619593,0.50409 1.124479,1.1445 1.124479,1.42631 0,0.62191 0.143682,0.6245 -1.744517,-0.0314 -2.905172,-1.00919 -6.424911,-1.80135 -7.146411,-1.60839 -0.61586,0.1647 -0.64623,0.22429 -0.27242,0.53452 0.23138,0.19203 1.76272,0.96869 3.402962,1.72589 4.561927,2.10598 10.258303,6.02209 10.258303,7.05231 0,0.64966 -0.551582,0.65255 -2.248958,0.0118 -0.727605,-0.27467 -2.422097,-0.76431 -3.76554,-1.08808 -3.942241,-0.95007 -4.981097,-0.25084 -2.140945,1.44103 2.935674,1.74878 6.414162,4.55203 9.029007,7.27633 2.358419,2.45713 3.016962,3.45374 2.28219,3.45374 -0.156107,0 -1.614622,-0.65656 -3.241146,-1.45901 -1.626523,-0.80245 -3.34427,-1.53171 -3.817212,-1.62057 -0.747924,-0.14053 -0.859896,-0.0894 -0.859896,0.39275 0,0.31587 0.35583,0.8138 0.827209,1.15755 2.037151,1.48557 8.433207,9.44039 8.433207,10.48844 0,0.65617 -1.395298,0.25634 -2.697466,-0.77296 -1.729714,-1.36726 -2.850036,-1.95078 -3.156662,-1.64416 -0.139713,0.13971 1.160899,3.76191 3.166946,8.81991 1.872213,4.72056 4.450744,11.26174 5.730068,14.53596 7.625193,19.51543 13.248515,29.19772 19.261568,33.16474 1.791943,1.1822 1.774772,1.24898 -0.740913,2.88214 -4.023862,2.61225 -9.630727,4.68647 -15.922706,5.89046 -2.917645,0.55831 -3.587136,0.50512 -5.449943,-0.43293 -2.20358,-1.10965 -3.413943,-1.95445 -7.400816,-5.16558 -4.924714,-3.96648 -7.534312,-5.64716 -8.768347,-5.64716 -0.51682,0 -0.87921,1.28022 -1.08599,3.83646 -0.45417,5.61453 -2.52926,12.91104 -5.14615,18.09505 -0.44458,0.88073 -0.80834,1.84039 -0.80834,2.13258 0,0.2922 0.52263,1.01301 1.16141,1.60181 2.01748,1.85965 3.78917,5.88654 4.42913,10.06702 0.25763,1.68297 0.41116,2.10655 0.74067,2.04344 0.34436,-0.066 0.42843,-0.60998 0.49009,-3.17137 0.0853,-3.54338 -0.47603,-6.87781 -1.65311,-9.82006 -0.39678,-0.99178 -0.66504,-1.8596 -0.59615,-1.92849 0.0689,-0.0689 0.80676,0.62405 1.63972,1.53988 1.693354,1.86183 3.573721,4.89279 4.395999,7.08589 0.9536,2.54335 1.685769,2.77074 1.432618,0.44492 -0.275183,-2.5282 -1.226923,-5.75794 -2.89801,-9.83442 -0.419301,-1.02285 -0.417941,-1.03957 0.04054,-0.49855 1.443292,1.70311 2.154952,2.76097 2.991273,4.4464 1.604955,3.23445 2.150137,2.23912 1.040768,-1.90012 -0.883243,-3.29553 -2.86176,-6.85527 -5.198933,-9.3539 -1.197195,-1.27989 -1.202155,-1.29279 -0.497675,-1.29279 1.245684,0 4.465737,0.83318 6.107704,1.58035 4.210828,1.91613 7.784095,6.17366 8.385728,9.99157 0.610558,3.87454 -0.515482,13.76304 -1.702409,14.94997 -0.285189,0.28519 -0.608602,0.41732 -0.718692,0.29363 -0.110091,-0.12369 -0.332251,-1.19904 -0.493689,-2.38965 -0.507058,-3.73959 -2.223603,-8.18515 -3.039589,-7.87203 -0.284549,0.1092 -0.361974,1.04921 -0.364575,4.42625 -0.0046,6.01351 -0.864184,9.89067 -3.44198,15.52557 -0.90647,1.98148 -0.91322,1.98841 -1.380866,1.41678 -0.326911,-0.3996 -0.522777,-1.26176 -0.643527,-2.83268 -0.174376,-2.2686 -1.162542,-5.95869 -1.845948,-6.89331 -0.783467,-1.07145 -1.104447,-0.34998 -1.448117,3.25494 -0.52967,5.55583 -2.09659,10.95733 -4.49992,15.51215 -0.7123,1.34995 -1.12072,1.85209 -1.50642,1.85209 -0.33522,0 -0.49515,-0.14546 -0.43636,-0.39688 0.051,-0.21828 0.15818,-1.86756 0.2381,-3.66506 0.13576,-3.05383 0.11389,-3.26207 -0.33353,-3.175 -0.33463,0.0651 -0.69464,0.73059 -1.19551,2.20985 -1.07865,3.18572 -2.94251,7.2517 -4.77029,10.40634 -1.74638,3.01414 -2.51166,4.01345 -3.07353,4.01345 -0.46226,0 -0.44913,-0.16535 0.2158,-2.71899 0.6157,-2.36453 0.8001,-5.08621 0.3446,-5.08621 -0.15371,0 -1.69219,1.66687 -3.41885,3.70416 -7.54533,8.90277 -12.84013,14.30781 -40.19955,41.03661 -6.39029,6.24298 -12.38318,12.24386 -13.31754,13.33527 -3.99584,4.66743 -6.7855,10.72092 -9.59501,20.82088 -1.30623,4.69577 -1.52399,5.2931 -1.99573,5.4741 -0.48117,0.18465 -0.64361,-0.7561 -0.86541,-5.01182 -0.1446,-2.77466 -0.25307,-3.42379 -0.5721,-3.42379 -0.51752,0 -3.09203,4.9702 -4.55462,8.7929 -1.1122,2.90687 -1.42364,3.38749 -1.6746,2.58419 z m 86.42404,-107.88386 c 0.86327,-4.84658 0.14824,-12.65236 -1.49426,-16.31233 -0.96709,-2.15497 -1.36878,-2.12003 -2.9491,0.25656 -1.23738,1.86084 -1.24109,1.87312 -0.77838,2.57969 1.95381,2.98348 3.4963,7.98297 3.75509,12.17097 0.18515,2.99613 0.23757,3.22334 0.7437,3.22334 0.2655,0 0.48503,-0.58248 0.72295,-1.91823 z m 35.113549,-40.55466 c -0.05236,-0.24737 -1.111911,-0.75958 -2.731373,-1.32041 -3.096144,-1.07221 -7.316314,-3.07414 -10.312685,-4.89204 -2.151756,-1.30547 -7.648403,-5.54073 -7.449312,-5.73981 0.204546,-0.20455 5.062042,1.04999 8.063444,2.08254 3.23951,1.11446 6.308822,2.56856 8.972034,4.25053 0.922655,0.5827 1.745747,0.99125 1.829117,0.90788 0.57748,-0.57746 -2.183474,-4.30439 -5.575916,-7.52683 -3.334965,-3.16783 -9.342821,-7.31687 -13.829802,-9.55089 -0.898906,-0.44756 -1.701459,-0.92229 -1.783453,-1.05496 -0.196969,-0.3187 3.721864,0.56926 6.063657,1.37394 2.722134,0.93538 5.312582,2.16537 6.778527,3.21855 2.436407,1.75038 2.767949,0.98847 0.752752,-1.72988 -3.076582,-4.15009 -8.265855,-8.24469 -14.478883,-11.42458 l -3.106563,-1.58997 1.401543,0.17435 c 2.490928,0.30985 6.470872,1.46976 9.156171,2.66846 1.441119,0.6433 2.721041,1.10733 2.844271,1.03117 1.197797,-0.74028 -3.961474,-4.62328 -9.566878,-7.20028 -4.501388,-2.06945 -13.67756,-5.05705 -14.31751,-4.66154 -0.41948,0.25926 -0.25432,0.61161 1.44819,3.0896 2.23904,3.2589 3.36254,5.33579 4.66631,8.62608 1.02681,2.59132 2.381409,7.12138 2.382862,7.96875 2.64e-4,0.21408 -0.743472,-0.33802 -1.652982,-1.22688 -0.9095,-0.88886 -1.91371,-1.74862 -2.23156,-1.91058 -1.36815,-0.69713 -1.83427,-0.0563 -0.9108,1.25218 2.37582,3.36634 5.185957,12.13739 5.551291,17.32677 l 0.170759,2.42553 4.365625,0.16662 c 4.499245,0.17172 6.886993,0.55657 13.012261,2.09726 4.15059,1.04399 6.887765,1.52026 8.901403,1.54884 1.369245,0.0194 1.657509,-0.0496 1.5875,-0.3804 z m -86.093409,-40.5697 c 2.70843,-1.52297 3.6274,-4.52525 2.15445,-7.03864 -1.27301,-2.17223 -3.25791,-3.22432 -4.37559,-2.31927 -1.24508,1.0082 0.21231,2.90824 1.708,2.22676 0.65385,-0.29792 0.66372,-0.2851 0.66372,0.86224 0,2.13714 -1.89994,3.53445 -4.41965,3.25044 -1.38425,-0.15602 -2.87792,-1.41154 -3.21169,-2.69962 -0.27058,-1.04419 -1.01404,-1.19338 -1.36372,-0.27364 -0.67754,1.78206 0.057,3.96101 1.85365,5.4989 1.96216,1.67954 4.55531,1.86235 6.99083,0.49283 z m 67.090161,0.64766 c 0,-0.43714 -2.728393,-2.63596 -4.615817,-3.71989 -0.719688,-0.41332 -2.2675,-1.14436 -3.439583,-1.62454 -1.172081,-0.48019 -1.936017,-0.87824 -1.697636,-0.88456 0.355248,-0.009 4.24135,1.01829 5.445083,1.43999 0.606983,0.21265 0.615828,-0.36132 0.01434,-0.93057 -1.41815,-1.34216 -6.135317,-3.27952 -10.655348,-4.3762 -2.88196,-0.69924 -4.36562,-0.81393 -4.36562,-0.33747 0,0.16784 0.58128,0.91978 1.29172,1.67097 0.76244,0.80617 1.74118,2.29438 2.38862,3.63199 1.19165,2.46194 1.38384,2.59396 3.77633,2.59396 1.683619,0 6.257262,1.04239 8.682912,1.97895 2.545328,0.98277 3.174999,1.0933 3.174999,0.55737 z m -22.754161,-3.9355 c 0,-1.2506 -8.21831,-6.12608 -8.9786,-5.32652 -0.13287,0.13973 -0.0544,1.15841 0.18415,2.39157 l 0.41561,2.14817 2.30327,0.17387 c 1.2668,0.0956 2.82462,0.33758 3.46182,0.53766 1.51804,0.47666 2.61375,0.50821 2.61375,0.0752 z m -2.91042,-6.64488 c 0,-0.62882 -4.68572,-3.46133 -5.95676,-3.60085 -1.1961,-0.1313 -1.26671,-0.0536 -1.09426,1.20454 0.27808,2.02884 0.49172,2.23395 2.36397,2.26959 0.90439,0.0172 2.00153,0.12219 2.43809,0.23328 1.34116,0.34127 2.24896,0.29825 2.24896,-0.10656 z m 18.473088,-0.48875 c -0.215548,-1.5177 -5.747208,-4.03408 -9.584848,-4.36019 l -1.82738,-0.15528 0.15658,0.76945 c 0.0861,0.4232 0.34448,1.21594 0.57415,1.76164 0.40949,0.97294 0.44539,0.99219 1.85011,0.99219 2.09156,0 5.2142,0.48163 6.818496,1.05167 1.868173,0.66381 2.114582,0.65653 2.012892,-0.0595 z m -20.110008,-4.79033 c 0.0989,-0.48607 -1.5798,-1.60159 -3.65475,-2.42869 -2.07453,-0.82694 -3.16063,-0.99765 -3.34189,-0.52528 -0.15512,0.40423 0.63368,3.08726 0.97387,3.31253 0.10988,0.0728 1.49131,0.11352 3.06984,0.0906 2.34955,-0.0341 2.88509,-0.11559 2.95293,-0.44914 z m 17.179985,-0.36544 c 0.123976,-0.37193 -2.396615,-2.2894 -3.781015,-2.87631 -1.6256,-0.68916 -4.63317,-1.41724 -5.87507,-1.42224 -1.31729,-0.005 -1.40238,0.28368 -0.60244,2.04598 0.47608,1.04883 0.58121,1.12448 1.56254,1.12448 1.68269,0 4.97323,0.52212 6.6009,1.04737 1.61936,0.52259 1.943633,0.53508 2.095085,0.0807 z m -20.619535,-4.90391 c 0.16938,-0.87879 -4.5113,-2.53508 -4.98735,-1.76481 -0.20637,0.33391 0.3664,1.80859 0.81605,2.10105 0.11187,0.0728 1.07585,0.13229 2.1422,0.13229 1.64478,0 1.95249,-0.0711 2.0291,-0.46853 z m 15.6598,-1.34757 c 0,-0.95213 -4.25912,-2.92162 -7.01984,-3.24609 -1.36357,-0.16026 -1.44682,-0.13674 -1.44682,0.40869 0,0.7805 0.67484,2.03772 1.20247,2.24019 0.23557,0.0904 1.16271,0.16665 2.06031,0.16946 0.8976,0.003 2.22732,0.17075 2.95492,0.37321 1.73036,0.48149 2.24896,0.49406 2.24896,0.0545 z m -96.63717,124.70626 c -0.25363,-0.15398 -2.32309,-0.33246 -4.59882,-0.39661 -2.27572,-0.0642 -4.27087,-0.22533 -4.43365,-0.35817 -0.25517,-0.20822 -3.95347,-1.22404 -6.368,-1.74911 -0.42919,-0.0933 -1.03864,-0.42937 -1.35434,-0.74673 -0.31569,-0.31737 -1.06775,-0.9723 -1.67124,-1.4554 -1.13864,-0.91149 -1.20867,-1.3643 -0.21335,-1.37937 1.1858,-0.018 5.20165,-1.78902 7.45253,-3.28671 4.30977,-2.86762 9.42438,-8.3035 12.00396,-12.75799 3.03164,-5.23513 4.21386,-10.88259 2.83592,-13.54722 -1.07339,-2.07571 -3.56856,-3.18641 -8.35125,-3.71747 -1.52797,-0.16966 -3.61156,-0.39943 -4.63021,-0.5106 l -1.85208,-0.20213 1.45521,-0.3106 c 2.58944,-0.5527 13.23786,-1.42583 17.85937,-1.4644 6.37866,-0.0532 9.51677,0.67048 11.87128,2.73777 2.25244,1.97766 2.95229,4.88237 2.93124,12.16604 -0.0158,5.47386 -0.52766,8.67721 -1.98518,12.424 -0.427,1.09769 -0.77691,2.14462 -0.77758,2.32652 -0.002,0.60347 0.90928,0.33789 2.11545,-0.61636 5.46826,-4.32617 10.14242,-10.86982 12.55301,-17.57374 1.76164,-4.89919 3.0574,-11.22107 3.0574,-14.91677 0,-0.96359 0.10255,-1.75198 0.22788,-1.75198 0.27051,0 0.98238,4.46467 1.39215,8.73125 0.1658,1.72642 0.22915,5.07435 0.14644,7.73906 -0.16959,5.46294 0.0309,5.85199 1.50013,2.91042 1.93606,-3.87633 4.03102,-11.55148 4.78452,-17.52865 0.24765,-1.96453 0.518,-3.98859 0.60076,-4.49792 l 0.15049,-0.92604 0.22649,0.79375 c 0.27232,0.9544 0.9243,5.61496 1.29415,9.25111 0.27826,2.7357 0.43209,3.17184 0.99584,2.82343 0.61252,-0.37857 1.40039,-7.19049 1.5947,-13.78787 l 0.18333,-6.22417 0.59027,2.91042 c 1.143,5.63574 1.45252,11.89951 0.83673,16.93333 -0.28399,2.32154 -0.33442,2.44315 -2.01126,4.84974 -7.11962,10.21802 -17.388,20.82506 -27.26908,28.16842 -4.37832,3.25385 -5.48076,3.75976 -9.05604,4.15586 -1.67348,0.1854 -5.06677,0.42997 -7.54062,0.54347 -2.47385,0.11351 -4.8551,0.27726 -5.29167,0.36388 -0.43656,0.0866 -1.00126,0.0315 -1.25488,-0.12246 z m 27.86448,-50.33665 c -2.39403,-6.63579 -6.446,-12.74005 -10.69221,-16.10771 -2.28814,-1.81472 -2.31817,-1.35442 -0.15328,2.3494 1.67544,2.86644 4.79212,9.1076 4.62938,9.27034 -0.0515,0.0515 -1.42071,-0.0915 -3.04274,-0.31775 -3.74214,-0.52193 -9.75396,-0.52733 -13.44821,-0.0121 -3.98571,0.55591 -7.84046,1.70414 -7.35403,2.19058 0.0911,0.0911 3.46486,0.17516 7.49714,0.18672 7.44528,0.0213 10.16481,0.29217 13.3794,1.33243 l 1.09579,0.35461 -1.45521,-0.18127 c -0.80037,-0.0997 -3.77693,-0.17002 -6.61459,-0.15627 -4.02493,0.0195 -5.85749,0.14968 -8.33437,0.59203 -3.30453,0.59016 -6.43227,1.37301 -8.14129,2.0377 -1.87085,0.72764 -1.78701,1.16674 -1.23931,-6.49119 1.02207,-14.29069 3.48235,-27.33074 8.86065,-46.96354 3.31689,-12.1079 4.8663,-19.36911 4.88073,-22.87323 0.006,-1.55197 0.37485,-1.13844 0.93119,1.04511 0.241,0.94588 0.80003,2.91041 1.24229,4.36562 0.44225,1.45521 0.78878,2.96539 0.77007,3.35596 -0.0442,0.92199 1.34001,4.89856 5.0024,14.37112 1.63162,4.22011 3.43456,9.10167 4.00654,10.84792 1.14404,3.49278 3.49881,12.2907 3.33378,12.45573 -0.0572,0.0572 -0.68919,-0.69789 -1.40444,-1.67796 -2.10007,-2.8776 -7.97978,-8.52881 -8.87366,-8.52881 -0.60055,0 -0.0943,0.96476 1.73235,3.30158 4.37235,5.5934 8.64221,12.259 11.0704,17.28178 0.86498,1.78923 1.52036,3.30548 1.4564,3.36944 -0.064,0.064 -0.70231,-0.68558 -1.41855,-1.66565 -4.05916,-5.55431 -10.53679,-11.97303 -11.30632,-11.2035 -0.35479,0.35478 -0.45874,0.18825 2.01674,3.23108 5.87174,7.21749 10.75061,16.90039 12.2263,24.26503 0.2424,1.20976 0.39254,2.24775 0.33365,2.30664 -0.0589,0.0589 -0.50304,-0.99043 -0.98699,-2.33185 z m 67.53432,-108.83044 c -0.22775,-0.59351 -0.21135,-1.21061 0.16833,-6.33211 0.76608,-10.33377 -0.82418,-24.11194 -3.83122,-33.19409 -1.18646,-3.58346 -3.93447,-9.19782 -5.54096,-11.32056 -1.06396,-1.40586 -3.56227,-3.75822 -4.32015,-4.06778 -0.1209,-0.0494 -0.55455,-1.28041 -0.96368,-2.73561 -0.92302,-3.28303 -2.60793,-8.36325 -3.63088,-10.94759 -0.42491,-1.07346 -0.70809,-2.01621 -0.62929,-2.09501 0.42941,-0.42941 4.83086,3.04127 7.55325,5.95596 3.94385,4.22242 8.01036,11.21728 10.16441,17.48395 1.06886,3.10958 2.61163,9.2633 3.08135,12.29071 0.25756,1.66002 0.40679,2.05052 0.78361,2.05052 0.38148,0 0.52583,-0.40579 0.80005,-2.24896 0.41458,-2.78661 0.86686,-2.94926 1.2991,-0.46716 1.037406,5.95723 0.65759,17.46895 -0.78214,23.70575 -0.37125,1.60825 -0.3348,2.0816 0.15265,1.98237 0.53615,-0.10914 2.246566,-3.28476 3.169573,-5.88473 0.391684,-1.10331 0.77356,-2.00602 0.848609,-2.00602 0.07505,0 0.06991,1.16086 -0.01143,2.57969 -0.151622,2.64482 -1.015331,5.96859 -2.114188,8.13593 -1.328494,2.62028 -5.111034,7.54063 -5.796884,7.54063 -0.13017,0 -0.31022,-0.19165 -0.4001,-0.42589 z"
           style="fill:#1a1a1a;fill-opacity:1;stroke-width:0.26458332" />
      </g>
    </g>
    <g
       style="font-style:normal;font-weight:bold;font-size:40px;line-height:125%;font-family:Sans;-inkscape-font-specification:'Sans Bold';letter-spacing:0px;word-spacing:0px;fill:#000000;fill-opacity:1;stroke:none;stroke-width:1px;stroke-linecap:butt;stroke-linejoin:miter;stroke-opacity:1"
       id="flowRoot4532" />
    <g
       aria-label="WOLF  GANG"
       transform="matrix(0.37939686,0,0,0.37939686,-7.6516864,60.302304)"
       style="font-style:normal;font-variant:normal;font-weight:500;font-stretch:normal;font-size:40px;line-height:89.99999762%;font-family:'BodegaSans Black';-inkscape-font-specification:'BodegaSans Black, Medium';font-variant-ligatures:normal;font-variant-caps:normal;font-variant-numeric:normal;font-feature-settings:normal;text-align:start;letter-spacing:0px;word-spacing:-0.9833042px;writing-mode:lr-tb;text-anchor:start;fill:#ff9d00;fill-opacity:1;stroke:none;stroke-width:1px;stroke-linecap:butt;stroke-linejoin:miter;stroke-opacity:1"
       id="flowRoot4540">
      <path
         d="m 169.12797,44.64585 h -5.6 l -2.44,20.84 -2.44,-20.84 h -6.8 l -2.44,20.84 -2.44,-20.84 h -5.6 l 4.64,30.88 h 6.8 l 2.44,-17.52 2.44,17.52 h 6.8 z"
         style="line-height:89.99999762%;word-spacing:-0.9833042px;fill:#333333;fill-opacity:1"
         id="path4591"
         inkscape:connector-curvature="0" />
      <path
         d="m 187.05859,60.08585 c 0,-12.64 -3.84,-15.64 -8.4,-15.64 -4.56,0 -8.4,3 -8.4,15.64 0,12.64 3.84,15.64 8.4,15.64 4.56,0 8.4,-3 8.4,-15.64 z m -6,0 c 0,8.52 -1.12,10.64 -2.4,10.64 -1.28,0 -2.4,-2.12 -2.4,-10.64 0,-8.52 1.12,-10.64 2.4,-10.64 1.28,0 2.4,2.12 2.4,10.64 z"
         style="line-height:89.99999762%;word-spacing:-0.9833042px;fill:#333333;fill-opacity:1"
         id="path4593"
         inkscape:connector-curvature="0" />
      <path
         d="m 202.31734,75.52585 v -5 h -6.12 v -25.88 h -6 v 30.88 z"
         style="line-height:89.99999762%;word-spacing:-0.9833042px;fill:#333333;fill-opacity:1"
         id="path4595"
         inkscape:connector-curvature="0" />
      <path
         d="m 217.17047,49.64585 v -5 h -12.52 v 16.36 h -1.6 v 5 h 1.6 v 9.52 h 6 v -9.52 h 5.28 v -5 h -5.28 v -11.36 z"
         style="line-height:89.99999762%;word-spacing:-0.9833042px;fill:#333333;fill-opacity:1"
         id="path4597"
         inkscape:connector-curvature="0" />
      <path
         d="m 158.68797,110.04585 v -7.6 c 0,-6.08 -2.48,-8.72 -5.96,-8.72 -1,0 -1.92,0.16 -1.92,0.16 v 4.88 c 0.2,-0.04 0.52,-0.04 0.84,-0.04 0.56,0 1.44,0.28 1.44,3 v 4.96 c 0,0 -0.2,0.04 -0.32,0.04 -1.76,0 -4.4,-1.32 -4.4,-10.64 0,-9.56 3.28,-10.64 4.84,-10.64 0.96,0 1.76,0.08 2.56,0.24 v -4.84 c 0,0 -1.44,-0.4 -3.52,-0.4 -3.92,0 -9.88,2.28 -9.88,15.64 0,13.56 6.24,15.64 10.24,15.64 2.92,0 5.04,-0.92 6.08,-1.68 z"
         id="path4599"
         inkscape:connector-curvature="0" />
      <path
         d="m 176.39422,111.52585 -4.64,-30.88 h -6.84 l -4.64,30.88 h 5.4 l 0.64,-5 h 4 l 0.64,5 z m -6.76,-10 h -2.72 l 1.4,-11.8 z"
         id="path4601"
         inkscape:connector-curvature="0" />
      <path
         d="m 194.75859,111.52585 v -30.88 h -5.72 v 15.04 l -7.76,-15.04 h -2.8 v 30.88 h 5.72 v -15.04 l 7.76,15.04 z"
         id="path4603"
         inkscape:connector-curvature="0" />
      <path
         d="m 214.23484,110.04585 v -7.6 c 0,-6.08 -2.48,-8.72 -5.96,-8.72 -1,0 -1.92,0.16 -1.92,0.16 v 4.88 c 0.2,-0.04 0.52,-0.04 0.84,-0.04 0.56,0 1.44,0.28 1.44,3 v 4.96 c 0,0 -0.2,0.04 -0.32,0.04 -1.76,0 -4.4,-1.32 -4.4,-10.64 0,-9.56 3.28,-10.64 4.84,-10.64 0.96,0 1.76,0.08 2.56,0.24 v -4.84 c 0,0 -1.44,-0.4 -3.52,-0.4 -3.92,0 -9.88,2.28 -9.88,15.64 0,13.56 6.24,15.64 10.24,15.64 2.92,0 5.04,-0.92 6.08,-1.68 z"
         id="path4605"
         inkscape:connector-curvature="0" />
    </g>
  </g>
</svg>
